<svg xmlns="http://www.w3.org/2000/svg" width="4288" height="3968" viewBox="0 0 4288 3968" version="1.1" shape-rendering="geometricPrecision">
	<rect x="0" y="0" width="100%" height="100%" fill="white" />
	<path d="M 3117 62.548 C 3116.175 62.747, 3101.775 63.624, 3085 64.497 C 3059.488 65.824, 3027.101 67.638, 2960 71.499 C 2954.775 71.800, 2927.550 73.381, 2899.500 75.013 C 2871.450 76.645, 2839.950 78.445, 2829.500 79.013 C 2769.675 82.264, 2709.910 85.659, 2601 91.994 C 2572.675 93.641, 2528.125 96.124, 2502 97.511 C 2475.875 98.898, 2443.250 100.703, 2429.500 101.522 C 2415.750 102.341, 2392.800 103.672, 2378.500 104.479 C 2364.200 105.286, 2349.800 106.188, 2346.500 106.483 C 2341 106.975, 2297.669 109.504, 2252 112 C 2210.497 114.268, 2159.410 117.231, 2105.500 120.498 C 2050.959 123.803, 2028.948 125.098, 1970 128.468 C 1856.072 134.981, 1799.051 138.305, 1772 140.011 C 1744.027 141.774, 1698.678 144.377, 1580.500 151 C 1561.250 152.078, 1538.300 153.423, 1529.500 153.987 C 1503.823 155.634, 1429.793 159.789, 1387 161.986 C 1365.275 163.101, 1336.250 164.688, 1322.500 165.513 C 1308.750 166.338, 1281.525 167.919, 1262 169.027 C 1242.475 170.135, 1210.750 171.935, 1191.500 173.027 C 1172.250 174.120, 1145.475 175.682, 1132 176.499 C 1118.525 177.317, 1091.975 178.884, 1073 179.983 C 1054.025 181.082, 1020.050 183.099, 997.500 184.465 C 974.950 185.831, 921.850 188.982, 879.500 191.466 C 837.150 193.951, 783.600 197.112, 760.500 198.492 C 717.124 201.083, 600.913 207.618, 581.500 208.559 C 575.450 208.852, 568.587 209.324, 566.250 209.607 L 562 210.123 562 1870.454 C 562 3197.863, 562.251 3530.858, 563.250 3531.143 C 563.938 3531.339, 931.250 3531.500, 1379.500 3531.500 L 2194.500 3531.500 2194.789 3522.750 L 2195.078 3514 2199.916 3514 C 2202.754 3514, 2205.218 3513.443, 2205.873 3512.653 C 2206.679 3511.682, 2207.062 3480.466, 2207.246 3400.903 L 2207.500 3290.500 2213.500 3290.811 C 2222.974 3291.302, 2237.539 3293.799, 2249.582 3296.995 C 2321.725 3316.146, 2380.406 3374.032, 2402.427 3447.770 C 2408.999 3469.775, 2411.997 3490.849, 2411.999 3515.050 C 2412 3525.032, 2412.377 3529.977, 2413.200 3530.800 C 2414.099 3531.699, 2425.967 3532, 2460.450 3532 L 2506.500 3532 2506.223 3726.250 C 2506.042 3853.280, 2506.289 3921.019, 2506.936 3922 C 2507.801 3923.310, 2518.537 3923.535, 2591.588 3923.778 C 2645.155 3923.956, 2677.272 3923.690, 2680.874 3923.039 C 2695.723 3920.356, 2711.988 3908.201, 2719.204 3894.394 C 2726.553 3880.333, 2726 3895.808, 2726 3704.318 L 2726 3532 3374.378 3532 C 3891.878 3532, 4022.958 3531.748, 4023.758 3530.750 C 4024.310 3530.063, 4029.356 3512.175, 4034.971 3491 C 4040.586 3469.825, 4048.277 3441.250, 4052.062 3427.500 C 4061.498 3393.218, 4097.331 3259.960, 4106.622 3224.595 L 4114.217 3195.690 4112.154 3189.095 C 4101.050 3153.593, 4096.746 3139.896, 4087.458 3110.500 C 4072.928 3064.517, 4069.544 3053.784, 4060.030 3023.500 C 4055.537 3009.200, 4047.655 2984.225, 4042.513 2968 C 4037.371 2951.775, 4029.951 2928.150, 4026.023 2915.500 C 4018.488 2891.233, 4003.618 2844.131, 3981.511 2774.500 C 3974.177 2751.400, 3966.519 2727.100, 3964.494 2720.500 C 3960.935 2708.903, 3942.466 2650.372, 3923.473 2590.500 C 3918.413 2574.550, 3910.594 2549.800, 3906.097 2535.500 C 3896.842 2506.071, 3884.870 2468.374, 3871.956 2428 C 3867.118 2412.875, 3860.909 2393.300, 3858.158 2384.500 C 3850.249 2359.198, 3824.461 2277.554, 3809.991 2232 C 3806.235 2220.175, 3799.499 2198.800, 3795.022 2184.500 C 3790.544 2170.200, 3784.693 2151.750, 3782.018 2143.500 C 3779.343 2135.250, 3773.703 2117.250, 3769.484 2103.500 C 3765.265 2089.750, 3757.616 2065.450, 3752.485 2049.500 C 3729.357 1977.608, 3724.646 1962.804, 3716.523 1936.500 C 3711.768 1921.100, 3702.314 1890.950, 3695.515 1869.500 C 3688.717 1848.050, 3674.309 1802.375, 3663.499 1768 C 3652.688 1733.625, 3639.110 1690.650, 3633.324 1672.500 C 3627.539 1654.350, 3618.801 1626.675, 3613.908 1611 C 3609.015 1595.325, 3601.922 1572.825, 3598.147 1561 C 3594.372 1549.175, 3586.236 1523.525, 3580.067 1504 C 3573.898 1484.475, 3565.997 1459.500, 3562.510 1448.500 C 3548.673 1404.860, 3531.384 1350.035, 3515.994 1301 C 3507.105 1272.675, 3494.939 1233.975, 3488.959 1215 C 3482.979 1196.025, 3474.517 1169.025, 3470.153 1155 C 3459.983 1122.307, 3439.934 1058.958, 3426.004 1015.500 C 3411.137 969.118, 3402.876 943.016, 3391.506 906.500 C 3386.197 889.450, 3375.620 855.925, 3368.002 832 C 3360.384 808.075, 3349.370 773.200, 3343.526 754.500 C 3337.683 735.800, 3330.248 712.175, 3327.006 702 C 3321.147 683.616, 3281.095 556.797, 3276.316 541.500 C 3274.942 537.100, 3269.629 520.225, 3264.510 504 C 3259.391 487.775, 3250.852 460.550, 3245.534 443.500 C 3240.216 426.450, 3230.748 396.300, 3224.495 376.500 C 3213.797 342.626, 3198.297 293.184, 3176.376 223 C 3155.834 157.235, 3151.447 143.300, 3140.795 110 C 3134.726 91.025, 3128.801 72.575, 3127.630 69 C 3125.568 62.709, 3125.388 62.495, 3122 62.343 C 3120.075 62.257, 3117.825 62.349, 3117 62.548 M 3113.500 67.650 C 3111.850 67.831, 3086.875 69.337, 3058 70.997 C 3029.125 72.656, 2998.525 74.462, 2990 75.010 C 2981.475 75.557, 2954.700 77.129, 2930.500 78.502 C 2906.300 79.875, 2879.300 81.442, 2870.500 81.984 C 2849.433 83.282, 2828.264 84.463, 2771.500 87.506 C 2724.558 90.024, 2711.382 90.770, 2630.500 95.494 C 2606.850 96.875, 2555.100 99.804, 2515.500 102.003 C 2475.900 104.201, 2432.025 106.678, 2418 107.506 C 2383.926 109.519, 2208.144 119.794, 2195.500 120.511 C 2190 120.823, 2160.300 122.630, 2129.500 124.525 C 2098.700 126.421, 2057.300 128.872, 2037.500 129.974 C 2017.700 131.075, 1986.200 132.875, 1967.500 133.973 C 1948.800 135.072, 1920.576 136.662, 1904.780 137.506 C 1888.984 138.350, 1869.409 139.459, 1861.280 139.970 C 1853.151 140.481, 1834.350 141.611, 1819.500 142.481 C 1804.650 143.351, 1770.675 145.391, 1744 147.015 C 1717.325 148.639, 1682.675 150.656, 1667 151.499 C 1630.706 153.450, 1555.904 157.627, 1523.500 159.513 C 1509.750 160.313, 1481.400 161.869, 1460.500 162.971 C 1439.600 164.074, 1415.300 165.432, 1406.500 165.989 C 1397.700 166.547, 1370.250 168.134, 1345.500 169.517 C 1320.750 170.899, 1285.425 172.917, 1267 173.999 C 1248.575 175.082, 1194.575 178.233, 1147 181.001 C 1099.425 183.768, 1041.375 187.162, 1018 188.542 C 870.992 197.219, 837.736 199.167, 805 201.015 C 769.284 203.031, 747.044 204.305, 690.500 207.572 C 675.100 208.462, 641.244 210.384, 615.265 211.845 L 568.030 214.500 567.963 325 C 567.926 385.775, 567.919 549.912, 567.948 689.750 L 568 944 574 944 C 579.526 944, 580.008 943.822, 580.100 941.750 C 580.156 940.513, 580.156 779.750, 580.100 584.500 C 580.045 389.250, 580.337 228.986, 580.750 228.358 C 581.463 227.273, 615.892 224.762, 668 221.994 C 693.975 220.614, 761.915 216.766, 835.500 212.507 C 868.500 210.597, 912.150 208.119, 932.500 207.002 C 952.850 205.884, 984.800 204.086, 1003.500 203.008 C 1022.200 201.929, 1057.750 199.903, 1082.500 198.506 C 1107.250 197.109, 1133.575 195.522, 1141 194.981 C 1148.425 194.439, 1177.450 192.656, 1205.500 191.019 C 1233.550 189.381, 1263.925 187.585, 1273 187.026 C 1282.075 186.468, 1305.700 185.110, 1325.500 184.009 C 1345.300 182.908, 1381.300 180.875, 1405.500 179.492 C 1429.700 178.110, 1469.300 175.864, 1493.500 174.502 C 1612.102 167.827, 1665.324 164.803, 1695.500 163.023 C 1791.541 157.358, 1833.405 154.930, 1851 154.006 C 1861.725 153.442, 1877.925 152.535, 1887 151.990 C 1903.050 151.025, 1924.675 149.761, 2049.500 142.488 C 2118.966 138.441, 2202.625 133.459, 2225 132.037 C 2233.525 131.495, 2249.275 130.573, 2260 129.987 C 2270.725 129.401, 2297.500 127.829, 2319.500 126.494 C 2341.500 125.158, 2375.475 123.153, 2395 122.037 C 2414.525 120.922, 2446.025 119.116, 2465 118.025 C 2483.975 116.935, 2520.650 114.896, 2546.500 113.496 C 2572.350 112.096, 2608.575 110.055, 2627 108.961 C 2645.425 107.867, 2684.800 105.625, 2714.500 103.979 C 2777.054 100.511, 2835.589 97.182, 2907.500 93.001 C 2935.550 91.371, 2970.875 89.342, 2986 88.494 C 3001.125 87.646, 3032.850 85.851, 3056.500 84.505 C 3080.150 83.159, 3102.385 81.933, 3105.912 81.779 L 3112.323 81.500 3114.598 88.500 C 3115.849 92.350, 3120.767 107.875, 3125.527 123 C 3130.287 138.125, 3138.155 163.100, 3143.011 178.500 C 3147.867 193.900, 3156.412 221.125, 3162.001 239 C 3174.188 277.979, 3186.248 316.136, 3201.509 364 C 3207.734 383.525, 3218.353 417.195, 3225.106 438.821 C 3231.859 460.448, 3237.860 478.795, 3238.443 479.591 C 3239.366 480.853, 3240.173 480.841, 3244.708 479.494 C 3247.571 478.644, 3250.119 477.616, 3250.370 477.210 C 3250.784 476.541, 3244.863 457.287, 3219.401 376.500 C 3214.721 361.650, 3203.921 327.225, 3195.401 300 C 3157.634 179.309, 3149.262 152.627, 3139.866 123 C 3134.372 105.675, 3128.067 85.987, 3125.855 79.250 C 3121.422 65.743, 3122.410 66.671, 3113.500 67.650 M 3084.500 87.609 C 3066.236 88.892, 3021.515 91.550, 2909 98.041 C 2880.125 99.706, 2829.950 102.622, 2797.500 104.520 C 2765.050 106.417, 2725.675 108.658, 2710 109.498 C 2694.325 110.339, 2666.425 111.916, 2648 113.002 C 2629.575 114.088, 2590.200 116.340, 2560.500 118.007 C 2530.800 119.673, 2495.322 121.704, 2481.659 122.518 C 2467.997 123.333, 2456.409 124, 2455.909 124 C 2454.734 124, 2454.686 912.688, 2455.861 913.414 C 2456.334 913.707, 2462.072 914.433, 2468.611 915.029 C 2505.504 918.390, 2540.857 932.211, 2570.500 954.862 C 2578.714 961.139, 2595.033 977.020, 2601.982 985.500 C 2621.010 1008.719, 2636.014 1040.322, 2641.953 1069.690 C 2644.843 1083.981, 2646.611 1105.363, 2645.165 1108.536 L 2644.048 1110.990 2549.774 1111.245 L 2455.500 1111.500 2455.500 1130 L 2455.500 1148.500 2949.250 1148.751 C 3419.025 1148.990, 3443 1148.917, 3442.998 1147.251 C 3442.996 1145.287, 3433.766 1114.830, 3428.527 1099.500 C 3426.647 1094, 3417.848 1066.550, 3408.974 1038.500 C 3400.099 1010.450, 3389.754 977.825, 3385.985 966 C 3382.216 954.175, 3372.548 923.350, 3364.500 897.500 C 3356.452 871.650, 3346.543 840.150, 3342.480 827.500 C 3338.416 814.850, 3330.166 788.750, 3324.146 769.500 C 3295.487 677.863, 3281.314 632.718, 3275.013 613 C 3266.492 586.331, 3252.603 542.313, 3242.516 510 C 3238.309 496.525, 3232.223 477.400, 3228.992 467.500 C 3225.761 457.600, 3220.797 441.850, 3217.960 432.500 C 3215.123 423.150, 3207.711 399.525, 3201.490 380 C 3195.269 360.475, 3184.039 324.925, 3176.534 301 C 3169.028 277.075, 3160.919 251.425, 3158.513 244 C 3156.107 236.575, 3152.948 226.450, 3151.494 221.500 C 3150.040 216.550, 3141.720 190, 3133.005 162.500 C 3124.291 135, 3115.294 106.537, 3113.012 99.250 C 3109.009 86.462, 3108.770 86.005, 3106.182 86.138 C 3104.707 86.213, 3094.950 86.876, 3084.500 87.609 M 2443.752 390.750 L 2443.500 657.500 2432.189 657.783 L 2420.878 658.067 2421.189 661.283 C 2421.360 663.052, 2422.063 664.556, 2422.750 664.625 C 2423.438 664.694, 2428.500 664.806, 2434 664.875 L 2444 665 2444 789.500 L 2444 914 2447 914 L 2450 914 2450 519 L 2450 124 2447.002 124 L 2444.004 124 2443.752 390.750 M 2426.500 125.642 C 2424.850 125.820, 2406.400 126.881, 2385.500 128.001 C 2333.043 130.813, 2249.857 135.579, 2211.500 137.971 C 2193.900 139.069, 2167.125 140.669, 2152 141.527 C 2136.875 142.384, 2123.600 143.231, 2122.500 143.407 C 2121.400 143.583, 2192.162 143.789, 2279.750 143.864 L 2439 144 2439 134.500 L 2439 125 2434.250 125.160 C 2431.637 125.248, 2428.150 125.465, 2426.500 125.642 M 1999 150.605 C 1986.625 151.335, 1960.300 152.856, 1940.500 153.984 C 1920.700 155.112, 1899.888 156.314, 1894.250 156.654 L 1884 157.273 1884 405.136 L 1884 653 2055.347 653 L 2226.695 653 2227.290 641.159 C 2228.820 610.723, 2240.597 574.611, 2257.273 549.222 C 2266.522 535.139, 2274.330 525.841, 2287.754 512.921 C 2311.480 490.087, 2337.910 475.032, 2368.226 467.083 C 2384.281 462.874, 2397.825 460.811, 2410.500 460.645 L 2421.500 460.500 2421.657 556.500 L 2421.813 652.500 2430.407 652.789 L 2439 653.078 2439 401.039 L 2439 149 2230.250 149.139 C 2070.149 149.246, 2016.256 149.588, 1999 150.605 M 1874.749 157.781 L 1871.997 158.133 1872.249 505.817 L 1872.500 853.500 1875.745 853.813 L 1878.990 854.126 1879.245 759.313 L 1879.500 664.500 2052.750 664.247 L 2226 663.994 2226 660.997 L 2226 658 2052.500 658 L 1879 658 1879 408.059 C 1879 270.591, 1878.662 157.963, 1878.250 157.773 C 1877.838 157.584, 1876.262 157.587, 1874.749 157.781 M 1800 162.013 C 1731.522 166.200, 1716.084 167.116, 1665.500 169.993 C 1646.250 171.089, 1619.250 172.660, 1605.500 173.485 C 1591.750 174.310, 1560.025 176.127, 1535 177.523 C 1494.856 179.762, 1452.085 182.180, 1358 187.532 C 1343.425 188.361, 1316.875 189.922, 1299 191.002 C 1281.125 192.082, 1238.825 194.558, 1205 196.504 C 1171.175 198.451, 1132.025 200.704, 1118 201.513 C 1103.975 202.321, 1080.125 203.668, 1065 204.506 C 1049.875 205.343, 1015 207.366, 987.500 209.001 C 960 210.636, 916.800 213.104, 891.500 214.485 C 836.145 217.509, 731.438 223.402, 695.500 225.517 C 681.200 226.359, 650.886 228.138, 628.135 229.472 C 605.384 230.806, 586.535 232.132, 586.248 232.419 C 585.816 232.851, 585.764 423.427, 585.988 1199.250 L 586 1242 1142.500 1242 L 1699 1242 1699.015 1153.750 C 1699.024 1105.213, 1699.386 1064.940, 1699.821 1064.256 C 1700.438 1063.283, 1718.823 1062.956, 1784.055 1062.756 L 1867.500 1062.500 1867.500 1056.500 L 1867.500 1050.500 1773.713 1050 C 1691.851 1049.564, 1679.796 1049.309, 1678.899 1048 C 1677.461 1045.902, 1678.549 1027.186, 1680.963 1012.500 C 1688.734 965.226, 1715.070 922.675, 1755.256 892.467 C 1782.723 871.819, 1820.391 857.628, 1854.484 855.084 C 1860.710 854.619, 1866.308 853.928, 1866.924 853.547 C 1867.748 853.038, 1867.979 777.313, 1867.797 567.677 C 1867.661 410.830, 1867.395 254.488, 1867.207 220.250 L 1866.864 158 1864.182 158.126 C 1862.707 158.196, 1833.825 159.945, 1800 162.013 M 2410.667 465.667 C 2410.300 466.033, 2410 508.333, 2410 559.667 L 2410 653 2413 653 L 2416 653 2416 559 L 2416 465 2413.667 465 C 2412.383 465, 2411.033 465.300, 2410.667 465.667 M 2393.500 467.101 C 2368.772 471.441, 2355.187 475.495, 2338.500 483.515 C 2301.391 501.349, 2269.536 532.968, 2251.874 569.500 C 2238.839 596.461, 2232.024 625.487, 2231.986 654.211 C 2231.979 659.870, 2231.702 665.511, 2231.370 666.747 L 2230.768 668.994 2057.634 669.247 L 1884.500 669.500 1884.242 727.171 L 1883.984 784.842 1919.073 785.171 C 1952.449 785.484, 1954.232 785.595, 1955.581 787.441 C 1956.788 789.092, 1956.998 807.484, 1956.985 910.441 C 1956.976 977.024, 1956.609 1032.068, 1956.168 1032.763 C 1955.541 1033.750, 1947.515 1033.968, 1919.433 1033.763 C 1884.254 1033.506, 1883.500 1033.458, 1883.500 1031.500 C 1883.500 1029.607, 1884.259 1029.485, 1897.750 1029.223 L 1912 1028.945 1912 909.973 L 1912 791 1898.013 791 L 1884.027 791 1883.763 824.750 L 1883.500 858.500 1876.500 858.731 C 1872.650 858.858, 1863.650 859.441, 1856.500 860.027 C 1802.068 864.486, 1753.045 891.194, 1720.594 934.069 C 1704.730 955.029, 1695.174 974.696, 1689.044 999 C 1686.885 1007.562, 1684 1025.216, 1684 1029.869 L 1684 1033 1775.918 1033 C 1826.473 1033, 1868.548 1033.273, 1869.418 1033.607 C 1870.613 1034.065, 1871 1035.656, 1871 1040.107 L 1871 1046 1875.809 1046 C 1884.605 1046, 1883.963 1042.004, 1884.248 1098.500 L 1884.500 1148.500 2001.500 1148.739 L 2118.500 1148.977 2120.250 1151.099 C 2121.213 1152.267, 2122 1154.747, 2122 1156.611 C 2122 1159.955, 2122.060 1160, 2126.443 1160 C 2134.591 1160, 2134 1152.091, 2134 1261.175 L 2134 1357.906 2139.250 1357.381 C 2195.378 1351.766, 2250.093 1316.928, 2280.968 1267.148 C 2300.158 1236.207, 2309.560 1204.425, 2311.777 1163 L 2312.500 1149.500 2375.500 1149 L 2438.500 1148.500 2438.771 1128.046 C 2438.968 1113.214, 2439.380 1107.377, 2440.271 1106.811 C 2440.947 1106.382, 2443.404 1106.024, 2445.731 1106.015 C 2449.532 1106.002, 2450.022 1105.721, 2450.550 1103.250 C 2451.609 1098.299, 2452.928 1096.001, 2454.729 1095.966 C 2455.703 1095.947, 2497.675 1095.834, 2548 1095.716 L 2639.500 1095.500 2639.213 1087.678 C 2638.369 1064.731, 2626.229 1029.832, 2610.974 1006.500 C 2593.577 979.894, 2570.999 958.653, 2544.012 943.507 C 2517.009 928.351, 2488.496 920.578, 2455.250 919.308 L 2439 918.687 2439 794.451 C 2439 682.086, 2438.849 670.156, 2437.418 669.607 C 2436.548 669.273, 2431.373 669, 2425.918 669 L 2416 669 2416 663.552 L 2416 658.105 2410.750 657.802 L 2405.500 657.500 2405.245 561.750 L 2404.990 466 2401.745 466.112 C 2399.960 466.173, 2396.250 466.619, 2393.500 467.101 M 3248 483.545 C 3246.075 484.262, 3243.488 484.882, 3242.250 484.924 C 3241.012 484.966, 3240 485.327, 3240 485.727 C 3240 486.127, 3243.183 496.590, 3247.073 508.977 C 3259.694 549.171, 3271.004 585.009, 3278.482 608.500 C 3282.508 621.150, 3290.851 647.700, 3297.021 667.500 C 3303.191 687.300, 3308.592 704.177, 3309.023 705.005 C 3309.642 706.191, 3311.151 706.403, 3316.154 706.005 C 3319.644 705.727, 3322.443 705.050, 3322.373 704.500 C 3322.112 702.445, 3305.371 648.868, 3280.502 570.500 C 3273.696 549.050, 3264.750 520.749, 3260.622 507.609 C 3256.494 494.468, 3252.753 483.386, 3252.309 482.980 C 3251.864 482.574, 3249.925 482.829, 3248 483.545 M 3316.269 710.923 C 3313.941 711.311, 3311.803 711.864, 3311.516 712.151 C 3311.229 712.437, 3311.916 715.333, 3313.041 718.586 C 3314.167 721.839, 3318.710 736.200, 3323.137 750.500 C 3327.564 764.800, 3335.149 788.875, 3339.994 804 C 3344.838 819.125, 3353.384 846.125, 3358.986 864 C 3392.967 972.434, 3421.599 1062.747, 3433.129 1097.867 C 3443.273 1128.767, 3449 1148.088, 3449 1151.414 L 3449 1153.668 3156.334 1154.334 C 2690.184 1155.395, 2452.615 1155.215, 2451.200 1153.800 C 2450.343 1152.943, 2450 1146.630, 2450 1131.734 L 2450 1110.867 2447.250 1111.184 L 2444.500 1111.500 2444.229 1131.971 C 2444.065 1144.284, 2443.547 1152.853, 2442.929 1153.471 C 2442.257 1154.143, 2420.166 1154.673, 2379.200 1155 C 2317.333 1155.493, 2316.500 1155.527, 2316.500 1157.500 C 2316.500 1159.483, 2317.250 1159.502, 2406 1159.749 C 2488.733 1159.980, 2495.595 1160.126, 2496.750 1161.690 C 2497.648 1162.906, 2498 1168.813, 2498 1182.691 L 2498 1202 2501 1202 L 2504 1202 2504.015 1182.750 C 2504.024 1172.162, 2504.457 1162.825, 2504.979 1162 C 2505.819 1160.671, 2559.911 1160.443, 2978.714 1160 C 3238.746 1159.725, 3451.841 1159.751, 3452.257 1160.057 C 3453.018 1160.617, 3455.191 1167.477, 3478.364 1242.500 C 3485.329 1265.050, 3491.475 1284.542, 3492.022 1285.815 C 3492.683 1287.354, 3493.600 1287.960, 3494.758 1287.624 C 3495.716 1287.346, 3498.412 1286.625, 3500.750 1286.021 C 3503.232 1285.380, 3505 1284.334, 3505 1283.507 C 3505 1282.728, 3502.563 1274.533, 3499.584 1265.295 C 3492.973 1244.795, 3471.812 1177.095, 3464.353 1152.584 C 3461.355 1142.730, 3454.237 1120.230, 3448.536 1102.584 C 3442.835 1084.938, 3436.070 1063.750, 3433.502 1055.500 C 3430.935 1047.250, 3421.029 1015.975, 3411.490 986 C 3401.951 956.025, 3388.674 913.950, 3381.985 892.500 C 3375.296 871.050, 3366.081 841.800, 3361.508 827.500 C 3356.934 813.200, 3347.273 782.600, 3340.039 759.500 C 3332.805 736.400, 3326.332 715.925, 3325.656 714 C 3324.307 710.163, 3323.129 709.776, 3316.269 710.923 M 1918 910 L 1918 1029 1935 1029 L 1952 1029 1952 910 L 1952 791 1935 791 L 1918 791 1918 910 M 567.764 1014.750 C 567.619 1050.912, 567.624 1096.138, 567.775 1115.250 L 568.051 1150 574.015 1150 L 579.980 1150 580.240 1053.898 C 580.383 1001.042, 580.342 955.817, 580.149 953.398 L 579.799 949 573.913 949 L 568.028 949 567.764 1014.750 M 1685.750 1038.745 C 1683.610 1039.047, 1683 1039.672, 1683 1041.566 L 1683 1044 1775 1044 L 1867 1044 1867 1041.500 L 1867 1039 1820.250 1038.873 C 1794.537 1038.803, 1754.375 1038.658, 1731 1038.552 C 1707.625 1038.445, 1687.263 1038.532, 1685.750 1038.745 M 1872.562 1051.900 C 1872.297 1052.328, 1872.092 1096.221, 1872.106 1149.440 C 1872.120 1202.659, 1871.839 1246.494, 1871.482 1246.851 C 1871.125 1247.208, 1580.508 1247.484, 1225.666 1247.464 L 580.500 1247.428 580.240 1201.714 L 579.980 1156 574.097 1156 L 568.215 1156 567.607 1173.250 C 567.273 1182.737, 567.112 1269.025, 567.250 1365 L 567.500 1539.500 573.750 1539.798 L 580 1540.095 580 1396.548 L 580 1253 1225.886 1253 L 1871.773 1253 1872.338 1257.250 C 1873.193 1263.678, 1873.022 1810.972, 1872.164 1815 L 1871.418 1818.500 1799.709 1818.757 L 1728 1819.013 1728 1891.807 C 1728 1947.090, 1727.711 1964.889, 1726.800 1965.800 C 1725.954 1966.646, 1720.200 1967, 1707.300 1967 L 1689 1967 1689 1970.019 L 1689 1973.038 1711.250 1972.769 L 1733.500 1972.500 1734 1898.500 L 1734.500 1824.500 1910.245 1824.247 L 2085.991 1823.994 2086.245 1928.747 L 2086.500 2033.500 2089.250 2033.816 L 2092 2034.133 2092 1930.266 C 2092 1850.815, 2092.282 1826.118, 2093.200 1825.200 C 2094.093 1824.307, 2104.467 1824, 2133.700 1824 L 2173 1824 2173 1821.503 L 2173 1819.007 2026.250 1818.753 L 1879.500 1818.500 1879.500 1489.500 L 1879.500 1160.500 1998 1160 L 2116.500 1159.500 2116.820 1157.250 L 2117.139 1155 2054.320 1154.983 C 2019.769 1154.974, 1967.308 1154.982, 1937.740 1155 C 1908.171 1155.018, 1882.863 1154.753, 1881.499 1154.410 L 1879.018 1153.788 1878.759 1102.665 L 1878.500 1051.542 1875.771 1051.333 C 1874.270 1051.217, 1872.826 1051.473, 1872.562 1051.900 M 1705 1155.006 L 1705 1242.012 1786.250 1241.756 L 1867.500 1241.500 1867.756 1154.750 L 1868.011 1068 1786.506 1068 L 1705 1068 1705 1155.006 M 2456 1103 L 2456 1106 2547.883 1106 L 2639.767 1106 2640.240 1103.524 C 2640.501 1102.161, 2640.478 1100.811, 2640.190 1100.524 C 2639.902 1100.236, 2598.342 1100, 2547.833 1100 L 2456 1100 2456 1103 M 1884.673 1165.660 C 1884.303 1166.030, 1884 1311.833, 1884 1489.667 L 1884 1813 1958.502 1813 L 2033.003 1813 2032.752 1489.250 L 2032.500 1165.500 1958.923 1165.244 C 1918.456 1165.103, 1885.043 1165.290, 1884.673 1165.660 M 2038 1488.988 L 2038 1813 2106.878 1813 C 2161.327 1813, 2175.976 1813.266, 2176.809 1814.270 C 2177.388 1814.968, 2178.006 1817.555, 2178.181 1820.020 L 2178.500 1824.500 2183.481 1824.814 C 2186.220 1824.987, 2188.801 1825.662, 2189.215 1826.314 C 2189.630 1826.966, 2189.976 1873.063, 2189.985 1928.750 L 2190 2030 2193.750 2029.994 C 2205.161 2029.976, 2228.941 2024.417, 2247.893 2017.336 C 2292.203 2000.783, 2331.998 1965.156, 2354.359 1922.022 C 2369.095 1893.596, 2375.571 1869.212, 2377.962 1833.141 C 2378.558 1824.144, 2379.502 1815.931, 2380.058 1814.891 C 2381.032 1813.071, 2383.157 1813, 2436.535 1813 L 2492 1813 2492.121 1789.250 C 2492.188 1776.188, 2492.308 1684.795, 2492.389 1586.157 C 2492.532 1410.430, 2492.574 1406.785, 2494.459 1405.407 C 2495.801 1404.425, 2499.333 1404, 2506.140 1404 C 2511.507 1404, 2521.208 1403.305, 2527.699 1402.457 C 2568.480 1397.123, 2598.199 1385.408, 2628.500 1362.722 C 2655.033 1342.857, 2674.401 1319.425, 2689.025 1289.500 C 2699.541 1267.981, 2705.997 1246.168, 2707.655 1226.552 L 2708.293 1219 2608.338 1219 C 2527.479 1219, 2508.040 1218.750, 2506.590 1217.689 C 2505.489 1216.884, 2504.593 1214.569, 2504.268 1211.689 L 2503.740 1207 2499.620 1206.985 C 2497.354 1206.976, 2494.906 1206.593, 2494.179 1206.132 C 2493.168 1205.490, 2492.817 1200.639, 2492.679 1185.397 L 2492.500 1165.500 2404.500 1165.500 L 2316.500 1165.500 2315.825 1176.408 C 2315 1189.735, 2312.956 1201.173, 2308.478 1217.509 C 2295.175 1266.049, 2263.307 1307.971, 2218.651 1335.679 C 2191.141 1352.749, 2152.455 1363.957, 2125 1362.813 L 2117.500 1362.500 2117 1264 L 2116.500 1165.500 2077.250 1165.238 L 2038 1164.977 2038 1488.988 M 2122.461 1166.250 C 2122.199 1166.938, 2122.100 1210.250, 2122.242 1262.500 L 2122.500 1357.500 2125.250 1357.816 L 2128 1358.133 2128 1261.566 L 2128 1165 2125.469 1165 C 2124.076 1165, 2122.723 1165.563, 2122.461 1166.250 M 2509.668 1165.666 C 2509.300 1166.033, 2509 1174.356, 2509 1184.162 L 2509 1201.991 2611.250 1202.245 L 2713.500 1202.500 2713.333 1216 C 2712.881 1252.547, 2696.415 1296.366, 2670.829 1329.110 C 2660.962 1341.738, 2640.229 1361.245, 2626.560 1370.763 C 2611.702 1381.108, 2588.398 1392.984, 2573.101 1398.007 C 2560.041 1402.295, 2539.650 1406.521, 2527.500 1407.456 C 2523.100 1407.795, 2516.911 1408.325, 2513.748 1408.635 L 2507.995 1409.197 2508.248 1610.848 L 2508.500 1812.500 2622.250 1812.754 L 2736 1813.009 2736 1651.627 C 2736 1516.926, 2736.224 1490.059, 2737.357 1489.118 C 2738.351 1488.294, 2770.043 1488.060, 2855.554 1488.246 L 2972.393 1488.500 2982.208 1516 C 2987.606 1531.125, 2998.148 1560.825, 3005.635 1582 C 3013.122 1603.175, 3021.474 1626.350, 3024.196 1633.500 C 3026.918 1640.650, 3031.326 1652.800, 3033.992 1660.500 C 3038.579 1673.749, 3051.503 1709.810, 3077.178 1781 L 3088.539 1812.500 3371.110 1812.752 L 3653.681 1813.003 3641.956 1775.752 C 3635.507 1755.263, 3625.394 1723.425, 3619.482 1705 C 3613.571 1686.575, 3606.060 1662.725, 3602.791 1652 C 3599.522 1641.275, 3593.536 1622.150, 3589.488 1609.500 C 3573.706 1560.184, 3562.378 1524.404, 3554.504 1499 C 3544.024 1465.193, 3525.801 1407.571, 3517.028 1380.500 C 3508.529 1354.274, 3490.319 1296.542, 3467.191 1222.500 L 3449.386 1165.500 2979.861 1165.249 C 2721.622 1165.111, 2510.035 1165.298, 2509.668 1165.666 M 2509.380 1209.452 C 2509.074 1210.251, 2509.114 1211.376, 2509.470 1211.952 C 2510.151 1213.053, 2707.128 1213.538, 2708.225 1212.442 C 2708.531 1212.135, 2708.554 1211.010, 2708.275 1209.942 C 2707.776 1208.036, 2705.943 1208, 2608.852 1208 C 2523.300 1208, 2509.862 1208.196, 2509.380 1209.452 M 585.334 1435.166 C 585.700 1532.607, 586 1644.882, 586 1684.666 L 586 1757 757.500 1757 L 929 1757 929 1791.431 L 929 1825.861 941.750 1835.614 C 948.763 1840.977, 962.600 1851.708, 972.500 1859.459 C 982.400 1867.210, 997.700 1879.146, 1006.500 1885.983 C 1015.300 1892.821, 1033.525 1907.297, 1047 1918.153 C 1060.475 1929.009, 1078.447 1943.315, 1086.938 1949.945 L 1102.376 1962 1303.474 1962 L 1504.572 1962 1505.807 1947.805 C 1508.014 1922.437, 1513.325 1902.503, 1523.473 1881.500 C 1545.228 1836.478, 1583.767 1802.783, 1632.500 1786.178 C 1650.812 1779.939, 1680.820 1775.960, 1686.527 1779.015 L 1689 1780.338 1689 1871.169 L 1689 1962 1705.500 1962 L 1722 1962 1722 1610 L 1722 1258 1153.334 1258 L 584.669 1258 585.334 1435.166 M 1728 1535.500 L 1728 1813.014 1797.750 1812.757 L 1867.500 1812.500 1867.500 1535.500 L 1867.500 1258.500 1797.750 1258.243 L 1728 1257.986 1728 1535.500 M 3499.500 1291.400 C 3496.750 1292.064, 3494.561 1293.033, 3494.637 1293.554 C 3494.875 1295.208, 3507.807 1336.459, 3517.505 1366.500 C 3527.208 1396.556, 3534.373 1419.150, 3547.476 1461 C 3562.382 1508.613, 3568.188 1526.510, 3569.004 1527.364 C 3570.067 1528.478, 3580.087 1525.937, 3580.675 1524.404 C 3580.920 1523.767, 3576.859 1509.803, 3571.651 1493.373 C 3547.099 1415.917, 3525.335 1347.024, 3517.512 1322 C 3512.783 1306.875, 3508.494 1293.487, 3507.979 1292.250 C 3506.933 1289.735, 3506.550 1289.697, 3499.500 1291.400 M 2500.252 1408.768 L 2498.005 1409.138 2497.752 1613.819 L 2497.500 1818.500 2440.750 1818.758 L 2384 1819.017 2384 1821.508 L 2384 1824 2615 1824 C 2819.667 1824, 2846 1823.829, 2846 1822.500 C 2846 1820.520, 2847.623 1820.575, 2848.393 1822.582 C 2848.727 1823.452, 2849 1868.452, 2849 1922.582 L 2849 2021 2851.995 2021 L 2854.990 2021 2855.245 1922.750 L 2855.500 1824.500 3256.250 1824.249 C 3575.847 1824.048, 3656.997 1823.745, 3656.985 1822.749 C 3656.976 1822.062, 3656.568 1820.866, 3656.078 1820.092 C 3655.312 1818.883, 3573.894 1818.712, 3081.286 1818.884 C 2765.641 1818.995, 2506.624 1818.793, 2505.693 1818.436 C 2504.110 1817.828, 2504 1804.514, 2504 1613.452 C 2504 1501.068, 2503.662 1408.956, 2503.250 1408.758 C 2502.838 1408.560, 2501.489 1408.564, 2500.252 1408.768 M 2741.966 1492.233 C 2741.948 1492.380, 2741.835 1527.945, 2741.716 1571.266 L 2741.500 1650.032 2767.500 1649.766 L 2793.500 1649.500 2793.500 1571 L 2793.500 1492.500 2767.750 1492.233 C 2753.588 1492.086, 2741.985 1492.086, 2741.966 1492.233 M 2799 1571 L 2799 1650 2825 1650 L 2851 1650 2851 1571 L 2851 1492 2825 1492 L 2799 1492 2799 1571 M 2856.683 1492.650 C 2856.307 1493.026, 2856 1528.591, 2856 1571.683 L 2856 1650.033 2882.250 1649.767 L 2908.500 1649.500 2908.500 1571 L 2908.500 1492.500 2882.933 1492.233 C 2868.871 1492.087, 2857.059 1492.274, 2856.683 1492.650 M 2914.683 1492.650 C 2914.307 1493.026, 2914 1528.591, 2914 1571.683 L 2914 1650.033 2940.750 1649.766 L 2967.500 1649.500 2967.500 1571 L 2967.500 1492.500 2941.433 1492.234 C 2927.096 1492.087, 2915.059 1492.275, 2914.683 1492.650 M 2972.355 1557.250 C 2972.673 1585.438, 2972.948 1617.767, 2972.967 1629.094 L 2973 1649.688 2995.627 1650.383 C 3008.073 1650.766, 3018.428 1650.906, 3018.639 1650.694 C 3018.850 1650.483, 3013.889 1647.305, 3007.614 1643.631 C 2995.726 1636.671, 2993.393 1634.792, 2994.473 1633.044 C 2995.608 1631.207, 2997.255 1631.886, 3009.995 1639.437 C 3016.868 1643.510, 3022.658 1646.676, 3022.861 1646.472 C 3023.065 1646.269, 3022.766 1644.842, 3022.196 1643.301 C 3021.627 1641.760, 3016.239 1626.550, 3010.222 1609.500 C 2983.061 1532.534, 2973.439 1506.043, 2972.639 1506.022 C 2972.160 1506.010, 2972.034 1528.796, 2972.355 1557.250 M 3575.750 1532.662 C 3573.137 1533.462, 3571 1534.497, 3571 1534.963 C 3571 1535.429, 3575.902 1551.041, 3581.892 1569.655 C 3587.883 1588.270, 3596.475 1615.425, 3600.985 1630 C 3610.615 1661.117, 3612.437 1666.906, 3626.326 1710.500 C 3636.738 1743.181, 3683.175 1890.156, 3686.600 1901.270 C 3687.578 1904.444, 3688.855 1906.838, 3689.439 1906.589 C 3690.023 1906.341, 3692.877 1905.345, 3695.783 1904.376 C 3698.689 1903.407, 3700.884 1902.138, 3700.663 1901.557 C 3700.243 1900.456, 3690.527 1869.663, 3676.824 1826 C 3665.410 1789.633, 3646.973 1731.262, 3631.499 1682.500 C 3618.269 1640.807, 3601.329 1587.186, 3589.720 1550.250 C 3583.089 1529.152, 3583.897 1530.168, 3575.750 1532.662 M 567.461 1546.250 C 567.199 1546.938, 567.101 1592.725, 567.242 1648 L 567.500 1748.500 573.750 1748.798 L 580 1749.095 580 1647.048 L 580 1545 573.969 1545 C 570.064 1545, 567.769 1545.441, 567.461 1546.250 M 2742 1733.483 C 2742 1776.117, 2742 1811.338, 2742 1811.750 C 2742 1812.162, 2753.588 1812.500, 2767.750 1812.500 L 2793.500 1812.500 2793.500 1734.500 L 2793.500 1656.500 2767.750 1656.233 L 2742 1655.966 2742 1733.483 M 2799 1734.500 L 2799 1813 2825 1813 L 2851 1813 2851 1734.500 L 2851 1656 2825 1656 L 2799 1656 2799 1734.500 M 2856.683 1656.650 C 2856.307 1657.026, 2856 1692.366, 2856 1735.183 L 2856 1813.033 2882.250 1812.767 L 2908.500 1812.500 2908.500 1734.500 L 2908.500 1656.500 2882.933 1656.233 C 2868.871 1656.087, 2857.059 1656.274, 2856.683 1656.650 M 2914 1734.500 L 2914 1813.033 2940.750 1812.766 L 2967.500 1812.500 2967.500 1734.500 L 2967.500 1656.500 2940.750 1656.234 L 2914 1655.967 2914 1734.500 M 2972.956 1667.750 C 2972.932 1674.213, 2972.819 1709.425, 2972.706 1746 L 2972.500 1812.500 2999.250 1812.766 L 3026 1813.033 3026 1736.516 C 3026 1694.432, 3025.708 1660, 3025.351 1660 C 3024.994 1660, 3018.635 1663.150, 3011.221 1667 C 2997.407 1674.174, 2995.615 1674.804, 2994.441 1672.904 C 2993.422 1671.256, 2995.445 1669.752, 3007.750 1663.015 C 3013.938 1659.628, 3019 1656.663, 3019 1656.428 C 3019 1656.193, 3008.650 1656, 2996 1656 L 2973 1656 2972.956 1667.750 M 3031.340 1693.162 C 3031.703 1706.451, 3032 1738.851, 3032 1765.162 L 3032 1813 3057.500 1813 C 3073.730 1813, 3083 1812.639, 3083 1812.006 C 3083 1811.459, 3077.111 1794.922, 3069.914 1775.256 C 3062.716 1755.590, 3053.472 1730.050, 3049.370 1718.500 C 3033.463 1673.703, 3031.738 1669, 3031.218 1669 C 3030.922 1669, 3030.977 1679.873, 3031.340 1693.162 M 567.462 1753.250 C 567.201 1753.938, 567.103 1859.519, 567.244 1987.875 L 567.500 2221.250 573.250 2221.188 C 576.413 2221.153, 579.337 2221.097, 579.750 2221.063 C 580.163 2221.028, 580.377 2152.150, 580.228 2068 L 579.956 1915 639.978 1915 L 700 1915 700.173 1897.750 C 700.268 1888.263, 700.380 1870.825, 700.423 1859 C 700.465 1847.175, 700.864 1836.938, 701.309 1836.250 C 701.948 1835.263, 725.158 1835, 811.827 1835 L 921.536 1835 925.518 1837.679 C 929.147 1840.120, 973.409 1874.166, 989 1886.509 C 992.575 1889.339, 998.425 1893.849, 1002 1896.530 C 1005.575 1899.212, 1018.782 1909.528, 1031.349 1919.453 C 1043.917 1929.379, 1062.817 1944.165, 1073.349 1952.312 C 1083.882 1960.459, 1094.040 1968.334, 1095.922 1969.812 L 1099.344 1972.500 1286.422 1973 L 1473.500 1973.500 1473.752 2189.250 L 1474.005 2405 1477 2405 L 1479.995 2405 1480.248 2189.250 L 1480.500 1973.500 1492.500 1973 L 1504.500 1972.500 1504.500 1970 L 1504.500 1967.500 1302.482 1967 L 1100.464 1966.500 1084.982 1954.565 C 1076.467 1948.001, 1057.350 1932.895, 1042.500 1920.996 C 1027.650 1909.096, 1008.300 1893.822, 999.500 1887.052 C 990.700 1880.282, 977.875 1870.307, 971 1864.886 C 964.125 1859.464, 950.850 1849.027, 941.500 1841.692 L 924.500 1828.355 924.237 1795.180 L 923.973 1762.006 752.237 1761.753 L 580.500 1761.500 580.195 1756.750 L 579.890 1752 573.914 1752 C 570.052 1752, 567.769 1752.442, 567.462 1753.250 M 1656 1785.544 C 1630.946 1790.102, 1604.297 1802.146, 1580.038 1819.875 C 1569.810 1827.349, 1549.196 1849.358, 1541.172 1861.370 C 1523.009 1888.561, 1512.633 1919.758, 1511.412 1950.852 C 1511.138 1957.808, 1510.596 1966.650, 1510.207 1970.500 L 1509.500 1977.500 1497.252 1977.781 L 1485.005 1978.062 1484.752 2193.781 L 1484.500 2409.500 1467.500 2410.160 C 1456.623 2410.583, 1446.538 2411.603, 1439.500 2412.992 C 1415.172 2417.793, 1389.031 2428.840, 1369.384 2442.623 C 1355.907 2452.078, 1333.341 2474.510, 1323.736 2488 C 1314.794 2500.559, 1303.969 2522.573, 1299.641 2537 C 1296.006 2549.117, 1291.482 2573.209, 1292.395 2575.588 C 1292.850 2576.773, 1306.879 2577.029, 1383.217 2577.245 L 1473.500 2577.500 1473.801 2582.699 L 1474.101 2587.899 1479.301 2588.199 L 1484.500 2588.500 1484.760 2634.637 L 1485.020 2680.774 1481.466 2681.440 C 1479.512 2681.807, 1477.032 2681.828, 1475.956 2681.486 C 1474.238 2680.941, 1474 2681.350, 1474 2684.851 C 1474 2692.718, 1483.192 2692, 1382.408 2692 L 1292.031 2692 1292.617 2698.250 C 1293.587 2708.601, 1296.870 2723.582, 1300.639 2734.857 C 1317.526 2785.371, 1355.417 2825.647, 1404.534 2845.291 C 1425.434 2853.650, 1442.248 2857.331, 1467.490 2859.075 C 1475.745 2859.645, 1483.063 2860.297, 1483.750 2860.524 C 1484.743 2860.852, 1485 2893.709, 1485 3020.362 C 1485 3164.813, 1484.851 3179.843, 1483.418 3180.393 C 1482.548 3180.727, 1476.811 3181.009, 1470.668 3181.020 C 1412.041 3181.122, 1354.238 3212.927, 1320.481 3263.658 C 1306.107 3285.260, 1295.361 3315.231, 1292.483 3341.745 L 1291.805 3347.989 1382.152 3348.245 L 1472.500 3348.500 1473.409 3353.203 L 1474.318 3357.906 1479.409 3358.203 L 1484.500 3358.500 1484.756 3433.250 L 1485.013 3508 1837.506 3508 L 2190 3508 2190 3397.700 C 2190 3313.244, 2190.281 3287.119, 2191.200 3286.200 C 2192.711 3284.689, 2210.243 3284.596, 2222.026 3286.035 C 2233.039 3287.381, 2253.868 3292.373, 2266.500 3296.693 C 2287.512 3303.880, 2311.421 3317.212, 2330.704 3332.495 C 2380.602 3372.043, 2412.785 3433.653, 2416.632 3496.993 L 2417.301 3508 2731.123 3508 L 3044.945 3508 3045.223 3493.750 L 3045.500 3479.500 3052.410 3479.201 C 3057.263 3478.990, 3059.566 3479.288, 3060.145 3480.201 C 3060.598 3480.915, 3060.976 3487.463, 3060.985 3494.751 L 3061 3508.002 3533.698 3507.751 L 4006.396 3507.500 4009.228 3497 C 4010.786 3491.225, 4014.774 3476.150, 4018.091 3463.500 C 4021.407 3450.850, 4029.678 3420.025, 4036.471 3395 C 4043.264 3369.975, 4053.852 3330.825, 4060.001 3308 C 4066.151 3285.175, 4075.141 3251.875, 4079.979 3234 C 4084.818 3216.125, 4089.060 3200.264, 4089.407 3198.752 C 4089.862 3196.769, 4086.849 3185.924, 4078.574 3159.752 C 4057.788 3094.018, 4024.861 2989.688, 4021.526 2979 C 4019.725 2973.225, 4013.724 2954.325, 4008.192 2937 C 4002.660 2919.675, 3993.405 2890.200, 3987.625 2871.500 C 3981.845 2852.800, 3974.905 2830.525, 3972.203 2822 C 3951.624 2757.069, 3934.760 2703.965, 3928.537 2684.500 C 3924.493 2671.850, 3918.415 2652.500, 3915.031 2641.500 C 3911.646 2630.500, 3903.758 2605.525, 3897.502 2586 C 3891.246 2566.475, 3879.089 2528.225, 3870.488 2501 C 3861.886 2473.775, 3848.983 2433.275, 3841.814 2411 C 3834.645 2388.725, 3825.285 2359.250, 3821.014 2345.500 C 3812.197 2317.115, 3806.108 2297.704, 3784.468 2229 C 3776.066 2202.325, 3765.954 2169.700, 3761.998 2156.500 C 3755.083 2133.426, 3742.986 2094.813, 3720.646 2024.500 C 3714.880 2006.350, 3705.366 1976.200, 3699.505 1957.500 C 3688.757 1923.208, 3664.611 1846.821, 3660.861 1835.247 L 3658.835 1828.994 3352.167 1829.237 C 3183.500 1829.371, 3003.875 1829.710, 2953 1829.990 L 2860.500 1830.500 2860.245 1925.750 L 2859.990 2021 2949.745 2021.132 C 2999.110 2021.204, 3044.675 2021.541, 3051 2021.882 L 3062.500 2022.500 3062.396 2036 C 3062.147 2068.347, 3050.313 2104.424, 3029.793 2135.388 C 3002.352 2176.796, 2961.845 2205.881, 2911.923 2220.022 C 2900.123 2223.364, 2877.730 2226.988, 2868.832 2226.995 C 2865.714 2226.998, 2862.452 2227.273, 2861.582 2227.607 C 2860.147 2228.158, 2860.001 2245.670, 2860.006 2415.857 C 2860.010 2549.118, 2860.330 2604.659, 2861.110 2607.500 C 2862.536 2612.688, 2873.872 2637.358, 2896.265 2684 C 2963.614 2824.286, 2980.965 2861.564, 2983.537 2871.500 C 2984.818 2876.450, 2992.213 2905.475, 2999.971 2936 C 3019.189 3011.617, 3028.587 3048.430, 3046.091 3116.657 L 3061.011 3174.815 3060.756 3260.157 L 3060.500 3345.500 3054.163 3345.800 C 3050.351 3345.980, 3047.262 3345.633, 3046.413 3344.928 C 3045.216 3343.935, 3044.999 3330.801, 3044.993 3259.128 L 3044.986 3174.500 3034.977 3136 C 3029.472 3114.825, 3012.172 3046.875, 2996.532 2985 C 2980.893 2923.125, 2967.675 2871.150, 2967.160 2869.500 C 2966.644 2867.850, 2960.494 2854.350, 2953.493 2839.500 C 2946.492 2824.650, 2937.051 2804.625, 2932.512 2795 C 2927.974 2785.375, 2918.077 2764.675, 2910.519 2749 C 2863.479 2651.435, 2847.761 2618.253, 2845.860 2612.500 C 2844.671 2608.902, 2844.117 2521.497, 2844.002 2319.250 L 2844 2316 2818.005 2316 L 2792.009 2316 2791.755 2418.250 L 2791.500 2520.500 2777 2520.382 C 2709.980 2519.835, 2638.704 2472.436, 2605.751 2406.500 C 2592.958 2380.903, 2585.701 2354.427, 2584.149 2327.690 L 2583.500 2316.500 2333.058 2316.248 C 2134.226 2316.048, 2082.452 2315.739, 2081.823 2314.748 C 2081.387 2314.062, 2081.024 2296.738, 2081.015 2276.250 L 2081 2239 2077.592 2239 C 2071.317 2239, 2049.619 2235.897, 2038 2233.338 C 2004.064 2225.863, 1971.513 2209.340, 1945.692 2186.481 C 1908.948 2153.954, 1883.832 2106.281, 1878.004 2058 C 1877.373 2052.775, 1877.002 2045.350, 1877.178 2041.500 L 1877.500 2034.500 1979.250 2034.245 L 2081 2033.991 2081 2005.998 L 2081 1978.005 1882.759 1977.752 L 1684.519 1977.500 1683.708 1972.408 L 1682.898 1967.316 1678.199 1966.408 L 1673.500 1965.500 1673.245 1874.750 L 1672.989 1784 1668.245 1784.090 C 1665.635 1784.139, 1660.125 1784.794, 1656 1785.544 M 1678 1872.333 C 1678 1920.917, 1678.236 1960.902, 1678.524 1961.190 C 1678.811 1961.478, 1680.161 1961.501, 1681.524 1961.240 L 1684 1960.767 1684 1872.383 L 1684 1784 1681 1784 L 1678 1784 1678 1872.333 M 1739.667 1829.667 C 1739.300 1830.033, 1739 1862.435, 1739 1901.670 L 1739 1973.006 1909.750 1972.753 L 2080.500 1972.500 2080.757 1901.411 L 2081.013 1830.322 2053.844 1829.661 C 2018.293 1828.796, 1740.532 1828.801, 1739.667 1829.667 M 2131.250 1829.727 L 2098 1830.027 2098 1932.942 C 2098 2048.445, 2098.674 2039, 2090.429 2039 L 2086 2039 2086 2043.429 C 2086 2051.669, 2095.138 2051, 1982.524 2051 L 1882.190 2051 1882.665 2055.250 C 1889.174 2113.477, 1923.039 2168.345, 1972.277 2200.440 C 1991.260 2212.814, 2019.618 2224.498, 2041.693 2229.040 C 2055.438 2231.868, 2073.962 2233.998, 2084.970 2234.015 C 2090.212 2234.024, 2095.056 2234.384, 2095.736 2234.816 C 2096.666 2235.407, 2097.037 2243.618, 2097.236 2268.050 L 2097.500 2300.500 2343 2301 L 2588.500 2301.500 2589.149 2321 C 2590.005 2346.734, 2593.694 2364.849, 2602.691 2387.500 C 2626.771 2448.120, 2680.410 2495.618, 2742 2510.859 C 2750.235 2512.897, 2768.931 2516, 2772.975 2516 C 2774.944 2516, 2774.965 2515.039, 2775.231 2415.550 C 2775.440 2337.684, 2775.777 2314.823, 2776.730 2313.870 C 2777.407 2313.193, 2779.882 2312.383, 2782.230 2312.070 L 2786.500 2311.500 2787 2306.500 L 2787.500 2301.500 2815.750 2301.234 L 2844 2300.969 2844.142 2280.734 C 2844.431 2239.677, 2844.828 2224.774, 2845.654 2224.027 C 2846.119 2223.606, 2854.375 2222.768, 2864 2222.166 C 2873.625 2221.563, 2885.775 2220.331, 2891 2219.428 C 2945.173 2210.068, 2991.282 2181.247, 3022.592 2137.177 C 3041.136 2111.075, 3055.706 2071.766, 3057.128 2044 L 3057.409 2038.500 2956.955 2038 L 2856.500 2037.500 2856 2032 L 2855.500 2026.500 2851 2026.203 C 2848.283 2026.024, 2846.005 2025.255, 2845.250 2024.262 C 2844.270 2022.973, 2844 2001.812, 2844 1926.309 L 2844 1830 2692.250 1829.943 C 2608.787 1829.912, 2505.524 1829.878, 2462.775 1829.869 C 2420.026 1829.859, 2384.589 1830.136, 2384.025 1830.485 C 2383.461 1830.833, 2383 1833.993, 2383 1837.508 C 2383 1847.271, 2380.309 1865.665, 2377.009 1878.466 C 2364.595 1926.611, 2334.928 1969.749, 2294.115 1999 C 2272.570 2014.441, 2237.676 2028.697, 2209.946 2033.387 C 2196.486 2035.664, 2177.956 2036.582, 2175.203 2035.108 L 2173.009 2033.935 2172.755 1931.717 L 2172.500 1829.500 2168.500 1829.464 C 2166.300 1829.444, 2149.537 1829.562, 2131.250 1829.727 M 2179 1930 L 2179 2030 2182 2030 L 2185 2030 2185 1930 L 2185 1830 2182 1830 L 2179 1830 2179 1930 M 706.519 1840.814 C 706.234 1841.100, 706 1859.030, 706 1880.659 L 706 1919.984 645.750 1920.242 L 585.500 1920.500 585.500 2273.626 L 585.500 2626.753 814 2627.048 C 939.675 2627.210, 1138.463 2627.266, 1255.750 2627.172 L 1469 2627 1469 2610 L 1469 2593 1379.250 2592.985 C 1328.533 2592.976, 1288.888 2592.582, 1288.094 2592.079 C 1286.953 2591.357, 1286.803 2588.856, 1287.300 2578.844 C 1289.739 2529.706, 1312.717 2483.578, 1351.255 2450.458 C 1365.309 2438.380, 1376.312 2431.167, 1392.500 2423.418 C 1413.817 2413.215, 1432.424 2407.955, 1454.500 2405.891 C 1461.100 2405.274, 1467.052 2404.614, 1467.727 2404.425 C 1468.691 2404.154, 1468.905 2358.660, 1468.727 2191.290 L 1468.500 1978.500 1283.237 1978 L 1097.974 1977.500 1081.784 1965 C 1072.879 1958.125, 1053.197 1942.649, 1038.047 1930.609 C 1022.896 1918.569, 1006.900 1905.993, 1002.500 1902.661 C 998.100 1899.329, 990.900 1893.622, 986.500 1889.978 C 982.100 1886.334, 970.175 1877.135, 960 1869.535 C 949.825 1861.935, 939.475 1854.040, 937 1851.989 C 934.525 1849.939, 929.800 1846.376, 926.500 1844.071 L 920.500 1839.879 813.769 1840.087 C 755.067 1840.202, 706.804 1840.529, 706.519 1840.814 M 3695 1909.716 C 3692.525 1910.573, 3690.341 1911.409, 3690.146 1911.574 C 3689.952 1911.739, 3691.622 1917.415, 3693.857 1924.187 C 3696.093 1930.959, 3701.263 1947.300, 3705.346 1960.500 C 3709.429 1973.700, 3718.403 2002.275, 3725.289 2024 C 3732.175 2045.725, 3738.712 2066.425, 3739.816 2070 C 3743.661 2082.454, 3759.148 2130.481, 3759.399 2130.733 C 3759.539 2130.872, 3762.459 2130.038, 3765.890 2128.880 C 3770.839 2127.209, 3771.996 2126.435, 3771.494 2125.137 C 3771.146 2124.237, 3767.685 2113.375, 3763.803 2101 C 3754.983 2072.883, 3734.743 2009.368, 3726.997 1985.500 C 3723.784 1975.600, 3718.599 1959.175, 3715.475 1949 C 3712.351 1938.825, 3708.241 1925.438, 3706.342 1919.250 C 3702.533 1906.842, 3702.757 1907.030, 3695 1909.716 M 2861 2030 L 2861 2033 2959.500 2033 L 3058 2033 3058 2030 L 3058 2027 2959.500 2027 L 2861 2027 2861 2030 M 1882 2042.500 L 1882 2045 1981.500 2045 L 2081 2045 2081 2042.500 L 2081 2040 1981.500 2040 L 1882 2040 1882 2042.500 M 3766.524 2133.585 C 3764.337 2134.391, 3762.169 2135.431, 3761.706 2135.894 C 3760.866 2136.734, 3768.024 2161.227, 3781.025 2202 C 3784.796 2213.825, 3793.712 2242.175, 3800.838 2265 C 3816.088 2313.844, 3826.904 2348.073, 3846.500 2409.500 C 3854.396 2434.250, 3866.768 2473.175, 3873.994 2496 C 3881.220 2518.825, 3892.025 2552.800, 3898.007 2571.500 C 3910.367 2610.146, 3924.672 2655.460, 3934.467 2687 C 3938.140 2698.825, 3943.109 2714.575, 3945.510 2722 C 3947.912 2729.425, 3950.988 2739.100, 3952.346 2743.500 C 3953.704 2747.900, 3958.861 2764.100, 3963.807 2779.500 C 3979.569 2828.578, 3985.683 2847.990, 3992.001 2869 C 3995.391 2880.275, 4003.484 2906.150, 4009.985 2926.500 C 4016.487 2946.850, 4024.055 2970.700, 4026.804 2979.500 C 4029.553 2988.300, 4038.630 3017.100, 4046.977 3043.500 C 4055.323 3069.900, 4067.327 3107.925, 4073.651 3128 C 4079.976 3148.075, 4087.413 3171.672, 4090.178 3180.437 L 4095.205 3196.373 4092.484 3206.937 C 4090.987 3212.747, 4084.909 3235.275, 4078.976 3257 C 4073.044 3278.725, 4065.634 3306.175, 4062.511 3318 C 4059.388 3329.825, 4051.506 3359.075, 4044.995 3383 C 4038.485 3406.925, 4028.111 3445.625, 4021.941 3469 C 4015.772 3492.375, 4010.281 3512.063, 4009.739 3512.750 C 4008.958 3513.743, 3965.188 3514, 3796.878 3514 L 3585 3514 3585 3520 L 3585 3526 3708.250 3526.074 C 3776.037 3526.115, 3860.750 3526.118, 3896.500 3526.081 C 3932.250 3526.044, 3974.775 3526.009, 3991 3526.003 L 4020.500 3525.993 4027.397 3499.746 C 4031.191 3485.311, 4041.613 3446.500, 4050.559 3413.500 C 4059.504 3380.500, 4072.518 3332.350, 4079.478 3306.500 C 4086.439 3280.650, 4095.004 3248.925, 4098.513 3236 C 4102.023 3223.075, 4105.860 3208.613, 4107.041 3203.863 L 4109.189 3195.226 4104.165 3179.863 C 4101.402 3171.413, 4096.372 3155.500, 4092.988 3144.500 C 4089.603 3133.500, 4082.413 3110.550, 4077.009 3093.500 C 4060.767 3042.256, 4050.814 3010.680, 4036.978 2966.500 C 4029.744 2943.400, 4020.518 2914.150, 4016.478 2901.500 C 4012.437 2888.850, 4005.927 2868.150, 4002.012 2855.500 C 3998.096 2842.850, 3990.223 2817.875, 3984.515 2800 C 3978.807 2782.125, 3967.993 2747.925, 3960.484 2724 C 3952.975 2700.075, 3942.088 2665.650, 3936.290 2647.500 C 3930.492 2629.350, 3921.715 2601.675, 3916.785 2586 C 3911.855 2570.325, 3901.150 2536.575, 3892.995 2511 C 3878.521 2465.609, 3870.012 2438.677, 3844.023 2356 C 3837.021 2333.725, 3825.629 2297.725, 3818.709 2276 C 3811.788 2254.275, 3802.225 2224.125, 3797.458 2209 C 3792.690 2193.875, 3786.092 2172.950, 3782.794 2162.500 C 3779.497 2152.050, 3776.039 2141.028, 3775.110 2138.006 C 3773.233 2131.899, 3772.339 2131.439, 3766.524 2133.585 M 567 2532.454 L 567 2839 574.014 2839 L 581.027 2839 580.399 2532.750 L 579.771 2226.500 573.386 2226.204 L 567 2225.909 567 2532.454 M 2848.762 2266.750 L 2848.500 2305.500 2820.250 2305.766 L 2792 2306.031 2792 2309.016 L 2792 2312 2820.500 2312 L 2849 2312 2849 2458.290 C 2849 2581.637, 2849.223 2605.436, 2850.424 2610.040 C 2852.024 2616.173, 2865.737 2645.557, 2905.008 2727 C 2934.150 2787.438, 2967.620 2857.997, 2969.999 2864.012 C 2972.094 2869.310, 2976.249 2885.145, 2994.007 2955.500 C 3007.352 3008.372, 3041.724 3142.473, 3047.064 3162.500 L 3049.997 3173.500 3049.998 3257.250 L 3050 3341 3053.022 3341 L 3056.044 3341 3055.772 3256.250 L 3055.500 3171.500 3045.823 3135 C 3035.012 3094.223, 3025.876 3058.485, 3007.987 2987 C 3001.312 2960.325, 2991.561 2921.850, 2986.319 2901.500 L 2976.788 2864.500 2961.746 2832.500 C 2953.472 2814.900, 2930.517 2766.750, 2910.734 2725.500 C 2875.943 2652.957, 2865.184 2630.249, 2858.617 2615.500 L 2855.500 2608.500 2855.309 2423 C 2855.205 2320.975, 2855.092 2235.363, 2855.059 2232.750 C 2855.002 2228.156, 2854.902 2228, 2852.012 2228 L 2849.023 2228 2848.762 2266.750 M 2086.238 2275.250 L 2086.500 2311.500 2335 2311.500 L 2583.500 2311.500 2583.500 2309 L 2583.500 2306.500 2338 2306 L 2092.500 2305.500 2092.299 2286.500 C 2092.189 2276.050, 2092.076 2261.088, 2092.049 2253.250 L 2092 2239 2088.988 2239 L 2085.975 2239 2086.238 2275.250 M 2780 2416.500 L 2780 2516 2783.500 2516 L 2787 2516 2787 2416.500 L 2787 2317 2783.500 2317 L 2780 2317 2780 2416.500 M 1292 2585 L 1292 2588 1380.500 2588 L 1469 2588 1469 2585 L 1469 2582 1380.500 2582 L 1292 2582 1292 2585 M 1474 2634.500 L 1474 2676 1477 2676 L 1480 2676 1480 2634.500 L 1480 2593 1477 2593 L 1474 2593 1474 2634.500 M 584.931 2632.250 C 584.893 2632.387, 584.699 2633.735, 584.500 2635.245 L 584.137 2637.991 792.069 2638.245 L 1000 2638.500 1000 2635.250 L 1000 2632 792.500 2632 C 678.375 2632, 584.969 2632.113, 584.931 2632.250 M 1004 2866.656 L 1004 3101.322 1032.663 3100.661 C 1048.427 3100.297, 1091.178 3100, 1127.665 3100 L 1194.004 3100 1193.752 2866.250 L 1193.500 2632.500 1098.750 2632.245 L 1004 2631.990 1004 2866.656 M 1198.667 2632.667 C 1198.300 2633.033, 1198 2634.383, 1198 2635.667 L 1198 2638 1334.500 2638 L 1471 2638 1471 2635 L 1471 2632 1335.167 2632 C 1260.458 2632, 1199.033 2632.300, 1198.667 2632.667 M 585.417 2642.917 C 585.187 2643.146, 585 2837.883, 585 3075.667 L 585 3508 1027 3508 L 1469 3508 1469 3435.500 L 1469 3363 1379.691 3363 C 1306.319 3363, 1290.053 3362.759, 1288.537 3361.651 C 1286.862 3360.426, 1286.745 3359.205, 1287.273 3348.401 C 1288.379 3325.756, 1294.293 3303.388, 1305.092 3281 C 1323.050 3243.771, 1352.262 3214.552, 1390.500 3195.570 C 1413.841 3183.984, 1434.868 3178.008, 1458.500 3176.246 L 1468.500 3175.500 1468.500 3020 L 1468.500 2864.500 1464.500 2864.258 C 1447.423 2863.224, 1426.376 2858.905, 1409.500 2852.972 C 1397.116 2848.618, 1375.304 2837.251, 1364.601 2829.574 C 1319.932 2797.531, 1290.290 2745.105, 1287.319 2692.886 C 1286.987 2687.049, 1287.012 2681.089, 1287.375 2679.642 L 1288.035 2677.011 1378.268 2676.755 L 1468.500 2676.500 1468.774 2659.750 L 1469.048 2643 1334.024 2643 L 1199 2643 1199 2872.965 C 1199 3099.301, 1198.969 3102.946, 1197.066 3103.965 C 1195.770 3104.658, 1162.908 3105, 1097.566 3105 L 1000 3105 1000 2874.005 L 1000 2643.009 792.917 2642.755 C 679.021 2642.615, 585.646 2642.688, 585.417 2642.917 M 1292.180 2684.245 L 1292.500 2686.500 1380.500 2686.500 C 1467.833 2686.500, 1468.500 2686.485, 1468.500 2684.500 C 1468.500 2682.517, 1467.748 2682.498, 1380.180 2682.245 L 1291.859 2681.989 1292.180 2684.245 M 573.250 2844.798 L 567 2845.095 567 2971.548 L 567 3098 574 3098 L 581 3098 581 2971.559 C 581 2902.016, 580.663 2844.979, 580.250 2844.809 C 579.837 2844.639, 576.688 2844.634, 573.250 2844.798 M 1474.247 3020.238 L 1474.500 3175.476 1477 3175.488 L 1479.500 3175.500 1479.753 3020.250 L 1480.006 2865 1477 2865 L 1473.994 2865 1474.247 3020.238 M 567 3314.382 L 567 3525.856 572.250 3526.384 C 575.138 3526.674, 672.675 3526.819, 789 3526.706 L 1000.500 3526.500 1000.500 3520 L 1000.500 3513.500 791.533 3513.261 C 676.601 3513.130, 582.206 3512.902, 581.765 3512.755 C 581.325 3512.608, 580.860 3420.466, 580.732 3307.994 L 580.500 3103.500 573.750 3103.204 L 567 3102.909 567 3314.382 M 2195 3399 L 2195 3508 2198.500 3508 L 2202 3508 2202 3399 L 2202 3290 2198.500 3290 L 2195 3290 2195 3399 M 1292 3355 C 1292 3357.001, 1292.423 3357.010, 1380.250 3356.755 C 1457.914 3356.531, 1468.500 3356.320, 1468.500 3355 C 1468.500 3353.680, 1457.914 3353.469, 1380.250 3353.245 C 1292.423 3352.990, 1292 3352.999, 1292 3355 M 1474 3437.893 C 1474 3505.263, 1473.841 3512.847, 1472.418 3513.393 C 1471.548 3513.727, 1419.348 3514, 1356.418 3514 L 1242 3514 1242 3520 L 1242 3526 1416.500 3526 L 1591 3526 1591 3520.008 L 1591 3514.017 1535.750 3513.758 L 1480.500 3513.500 1480.244 3438.250 L 1479.987 3363 1476.994 3363 L 1474 3363 1474 3437.893 M 3049.777 3498.686 L 3049.500 3513.500 3007.750 3513.761 L 2966 3514.022 2966 3520.011 L 2966 3526 3150.500 3526 L 3335 3526 3335 3520 L 3335 3514 3196.750 3513.985 C 3120.713 3513.976, 3057.951 3513.620, 3057.280 3513.194 C 3056.438 3512.659, 3055.972 3508.089, 3055.780 3498.459 L 3055.500 3484.500 3052.777 3484.186 L 3050.054 3483.872 3049.777 3498.686 M 1005.316 3514.619 C 1005.080 3515.235, 1005.024 3518.149, 1005.193 3521.095 L 1005.500 3526.452 1120.500 3526.128 C 1183.750 3525.950, 1235.783 3525.631, 1236.128 3525.419 C 1236.761 3525.030, 1236.513 3515.168, 1235.854 3514.534 C 1235.659 3514.347, 1183.805 3514.038, 1120.623 3513.847 C 1036.517 3513.593, 1005.630 3513.800, 1005.316 3514.619 M 1597 3520 L 1597 3526 1720 3526 L 1843 3526 1843 3520 L 1843 3514 1720 3514 L 1597 3514 1597 3520 M 1849 3519.997 L 1849 3526 2014.550 3526 L 2180.100 3526 2179.800 3520.250 L 2179.500 3514.500 2014.250 3514.247 L 1849 3513.994 1849 3519.997 M 2185 3520 C 2185 3526.100, 2185.015 3526.131, 2187.750 3525.816 C 2190.378 3525.514, 2190.500 3525.257, 2190.500 3520 C 2190.500 3514.743, 2190.378 3514.486, 2187.750 3514.184 C 2185.015 3513.869, 2185 3513.900, 2185 3520 M 2417 3519.941 C 2417 3526.369, 2417.791 3527.520, 2421.557 3526.575 C 2423.807 3526.010, 2424 3525.490, 2424 3519.981 L 2424 3514 2420.500 3514 L 2417 3514 2417 3519.941 M 2429 3520 L 2429 3526 2589.500 3526 L 2750 3526 2750 3520 L 2750 3514 2589.500 3514 L 2429 3514 2429 3520 M 2756 3520 L 2756 3526 2858.500 3526 L 2961 3526 2961 3520 L 2961 3514 2858.500 3514 L 2756 3514 2756 3520 M 3340 3520 L 3340 3526 3460 3526 L 3580 3526 3580 3520 L 3580 3514 3460 3514 L 3340 3514 3340 3520 M 2512 3725.500 L 2512 3919 2545 3919 L 2578 3919 2578 3725.500 L 2578 3532 2545 3532 L 2512 3532 2512 3725.500 M 2584 3725.514 L 2584 3919.027 2616.750 3918.764 L 2649.500 3918.500 2649.753 3725.250 L 2650.005 3532 2617.003 3532 L 2584 3532 2584 3725.514 M 2655.667 3532.667 C 2655.300 3533.033, 2655 3620.108, 2655 3726.167 L 2655 3919 2664.750 3918.985 C 2682.473 3918.958, 2694.654 3914.345, 2705.580 3903.522 C 2712.273 3896.892, 2718.472 3885.730, 2719.754 3878 C 2720.164 3875.525, 2720.351 3796.662, 2720.168 3702.750 L 2719.837 3532 2688.085 3532 C 2670.622 3532, 2656.033 3532.300, 2655.667 3532.667" stroke="none" fill="black" fill-rule="evenodd"/>
</svg>