<svg xmlns="http://www.w3.org/2000/svg" width="2144" height="1984" viewBox="0 0 2144 1984" version="1.1">
	<rect x="0" y="0" width="100%" height="100%" fill="white" />
	<path d="M 1531 33.056 C 1524.125 33.497, 1509.500 34.362, 1498.500 34.978 C 1487.500 35.593, 1465.225 36.955, 1449 38.003 C 1432.775 39.052, 1409.825 40.392, 1398 40.981 C 1374.716 42.141, 1311.539 45.704, 1301 46.451 C 1297.425 46.704, 1280.550 47.627, 1263.500 48.502 C 1238.326 49.794, 1148.766 54.976, 1107.500 57.527 C 1102.550 57.834, 1063.850 60.085, 1021.500 62.531 C 979.150 64.977, 925.375 68.104, 902 69.481 C 878.625 70.857, 843.075 72.889, 823 73.997 C 802.925 75.104, 784.250 76.236, 781.500 76.511 C 778.750 76.785, 767.725 77.459, 757 78.006 C 716.033 80.099, 662.246 83.082, 631 84.993 C 613.125 86.087, 585.900 87.679, 570.500 88.530 C 555.100 89.382, 497.050 92.773, 441.500 96.066 C 385.950 99.359, 327.675 102.740, 312 103.579 C 296.325 104.419, 282.938 105.292, 282.250 105.521 C 281.251 105.854, 281 272.832, 281 935.970 L 281 1766.002 688.750 1765.751 L 1096.500 1765.500 1096.810 1761.196 C 1097.021 1758.264, 1097.659 1756.693, 1098.810 1756.268 C 1099.740 1755.926, 1100.831 1755.163, 1101.235 1754.573 C 1101.639 1753.983, 1101.976 1741.463, 1101.985 1726.750 C 1102.002 1696.089, 1101.005 1698.522, 1112.145 1701.964 C 1125.720 1706.158, 1138.302 1716.336, 1144.506 1728.144 C 1148.249 1735.266, 1152 1748.039, 1152 1753.660 C 1152 1755.962, 1152.466 1757, 1153.500 1757 C 1154.556 1757, 1155 1755.933, 1155 1753.394 C 1155 1747.910, 1157.749 1738.329, 1161.687 1730.090 C 1168.440 1715.962, 1186.507 1702.246, 1200.780 1700.413 L 1206.061 1699.734 1206 1726.117 C 1205.966 1740.628, 1205.952 1753.287, 1205.969 1754.250 C 1205.988 1755.323, 1206.774 1756, 1208 1756 C 1209.696 1756, 1210 1756.667, 1210 1760.393 C 1210 1763.476, 1210.472 1764.967, 1211.582 1765.393 C 1212.452 1765.727, 1222.294 1766, 1233.453 1766 L 1253.743 1766 1253.565 1862.504 C 1253.468 1915.582, 1253.675 1959.475, 1254.027 1960.044 C 1254.457 1960.739, 1269.428 1960.984, 1299.663 1960.789 L 1344.660 1960.500 1349.580 1957.471 C 1354.926 1954.180, 1360.331 1947.070, 1361.967 1941.177 C 1362.626 1938.807, 1362.991 1907.028, 1362.994 1851.750 L 1363 1766 1687.521 1766 L 2012.043 1766 2012.940 1763.750 C 2013.433 1762.513, 2017.684 1746.875, 2022.386 1729 C 2034.571 1682.682, 2043.928 1647.494, 2051.504 1619.500 C 2052.843 1614.550, 2054.682 1607.464, 2055.590 1603.754 L 2057.241 1597.008 2053.685 1585.754 C 2051.728 1579.564, 2047.437 1565.950, 2044.149 1555.500 C 2027.269 1501.864, 2001.478 1420.286, 2000.361 1417 C 2000.081 1416.175, 1997.169 1406.950, 1993.891 1396.500 C 1990.614 1386.050, 1985.939 1371.200, 1983.505 1363.500 C 1981.070 1355.800, 1976.517 1341.400, 1973.388 1331.500 C 1970.258 1321.600, 1964.350 1302.700, 1960.258 1289.500 C 1956.166 1276.300, 1952.433 1264.600, 1951.962 1263.500 C 1951.492 1262.400, 1945.188 1242.600, 1937.954 1219.500 C 1930.720 1196.400, 1920.390 1163.550, 1914.999 1146.500 C 1909.608 1129.450, 1898.607 1094.575, 1890.552 1069 C 1882.498 1043.425, 1874.143 1017.100, 1871.986 1010.500 C 1869.829 1003.900, 1864.646 987.475, 1860.468 974 C 1856.291 960.525, 1851.821 946.125, 1850.535 942 C 1849.250 937.875, 1837.079 899.400, 1823.488 856.500 C 1809.897 813.600, 1797.951 775.659, 1796.941 772.186 C 1795.931 768.713, 1793.550 761.288, 1791.649 755.686 C 1789.748 750.084, 1782.484 727.275, 1775.506 705 C 1754.503 637.954, 1752.104 630.310, 1745.531 609.500 C 1742.057 598.500, 1735.749 578.475, 1731.514 565 C 1724.521 542.748, 1719.521 526.939, 1697.829 458.500 C 1693.993 446.400, 1690.245 434.475, 1689.498 432 C 1687.633 425.815, 1677.675 394.093, 1673.017 379.500 C 1666.637 359.512, 1662.460 346.308, 1657.038 329 C 1654.196 319.925, 1650.586 308.450, 1649.017 303.500 C 1647.448 298.550, 1643.188 285.050, 1639.550 273.500 C 1635.912 261.950, 1630.723 245.525, 1628.018 237 C 1625.314 228.475, 1621.514 216.325, 1619.573 210 C 1617.633 203.675, 1614.492 193.550, 1612.592 187.500 C 1604.525 161.806, 1599.593 146.028, 1592.114 122 C 1587.749 107.975, 1583.274 94.025, 1582.171 91 C 1581.067 87.975, 1577.633 77.175, 1574.540 67 C 1571.447 56.825, 1567.640 44.900, 1566.079 40.500 L 1563.242 32.500 1553.371 32.378 C 1547.942 32.310, 1537.875 32.616, 1531 33.056 M 1543 35.112 C 1527.280 36.354, 1432.865 41.997, 1353 46.468 C 1337.875 47.315, 1289.500 50.021, 1245.500 52.482 C 1138.934 58.443, 1132.744 58.805, 1074.500 62.486 C 1061.850 63.286, 1042.500 64.406, 1031.500 64.974 C 1020.500 65.543, 1000.250 66.678, 986.500 67.495 C 972.750 68.313, 949.575 69.663, 935 70.496 C 920.425 71.329, 900.850 72.458, 891.500 73.005 C 819.448 77.222, 783.431 79.268, 751 80.985 C 715.418 82.869, 656.536 86.230, 601.500 89.517 C 587.750 90.339, 561.425 91.903, 543 92.994 C 524.575 94.084, 502.075 95.426, 493 95.976 C 443.693 98.961, 344.009 104.719, 320 105.967 C 309.275 106.525, 296.788 107.264, 292.250 107.609 L 284 108.237 284 290.618 L 284 473 287 473 L 290 473 290 293.572 L 290 114.144 295.250 113.588 C 298.137 113.282, 314.225 112.334, 331 111.481 C 347.775 110.628, 376.800 109.049, 395.500 107.973 C 414.200 106.897, 445.475 105.115, 465 104.014 C 484.525 102.913, 518.725 100.897, 541 99.534 C 582.190 97.014, 596.861 96.153, 644 93.489 C 698.038 90.436, 755.696 87.018, 762 86.495 C 765.575 86.199, 781.100 85.286, 796.500 84.468 C 811.900 83.649, 848.762 81.618, 878.415 79.955 C 908.068 78.291, 932.706 77.306, 933.167 77.767 C 933.628 78.228, 933.891 180.956, 933.752 306.052 L 933.500 533.500 892.761 533.761 L 852.021 534.022 851.761 577.261 L 851.500 620.500 843.750 620.792 C 836.265 621.074, 836 621.168, 836 623.542 L 836 626 849.003 626 L 862.005 626 861.753 805.250 L 861.500 984.500 856.250 984.802 C 851.429 985.080, 851 985.304, 851 987.552 C 851 989.945, 851.180 990, 858.988 990 L 866.976 990 867.238 952.250 L 867.500 914.500 954.938 914.244 C 1024.226 914.042, 1042.541 914.250, 1043.172 915.244 C 1043.611 915.935, 1043.976 940.703, 1043.985 970.285 C 1044 1023.758, 1044.012 1024.064, 1046 1023 C 1047.961 1021.951, 1048 1020.906, 1048 969.547 C 1048 940.736, 1048.273 916.452, 1048.607 915.582 C 1049.125 914.231, 1051.543 914, 1065.177 914 L 1081.139 914 1080.820 911.750 L 1080.500 909.500 1010.543 909.243 C 971.891 909.101, 940.192 908.592, 939.705 908.105 C 939.205 907.605, 938.788 846.955, 938.743 768.111 L 938.664 629 904.332 629 L 870 629 869.945 745.750 C 869.898 845.078, 869.469 905.819, 868.771 912 C 867.913 919.590, 867.498 869.517, 867.499 758.500 L 867.500 626.500 902.951 626 L 938.401 625.500 938.310 605 C 938.253 592.495, 938.613 584.012, 939.231 583.250 C 940.024 582.272, 955.016 582, 1008.063 582 C 1047.712 582, 1076.116 581.622, 1076.444 581.090 C 1078.636 577.544, 1077.730 577.497, 1008.574 577.611 C 971.501 577.672, 940.569 577.350, 939.835 576.896 C 938.777 576.241, 938.539 571.441, 938.686 553.784 C 938.789 541.528, 938.901 486.388, 938.936 431.250 L 939 331 1026.500 331 L 1114 331 1114 328.500 L 1114 326 1027.059 326 C 978.009 326, 939.881 325.616, 939.574 325.119 C 938.536 323.440, 938.891 77.685, 939.932 77.042 C 940.478 76.705, 962.654 75.190, 989.212 73.676 C 1015.770 72.162, 1048.300 70.264, 1061.500 69.459 C 1240.935 58.520, 1223.991 59.391, 1224.040 61.108 C 1224.382 73.033, 1223.775 324.555, 1223.403 325.157 C 1223.116 325.621, 1220.209 326, 1216.941 326 C 1211.271 326, 1211 326.114, 1211 328.500 C 1211 330.910, 1211.234 331, 1217.493 331 L 1223.985 331 1224.243 394.750 L 1224.500 458.500 1226.620 458.802 C 1228.055 459.007, 1228.909 458.455, 1229.266 457.091 C 1229.555 455.984, 1229.700 366.367, 1229.586 257.942 L 1229.380 60.806 1231.440 60.054 C 1232.573 59.640, 1243.400 58.765, 1255.500 58.108 C 1267.600 57.452, 1287.850 56.257, 1300.500 55.453 C 1313.150 54.650, 1347.575 52.642, 1377 50.992 C 1444.783 47.192, 1475.087 45.457, 1516.945 42.979 C 1535.340 41.891, 1551.858 41, 1553.653 41 C 1556.842 41, 1556.963 41.164, 1559.030 48.250 C 1560.194 52.237, 1564.673 66.525, 1568.985 80 C 1573.297 93.475, 1581.131 118.225, 1586.396 135 C 1591.660 151.775, 1597.923 171.575, 1600.313 179 C 1602.702 186.425, 1607.986 203.188, 1612.053 216.250 C 1616.121 229.313, 1619.937 240, 1620.533 240 C 1621.130 240, 1622.440 239.398, 1623.446 238.663 C 1625.194 237.385, 1625.119 236.848, 1621.728 226.413 C 1619.778 220.411, 1614.267 202.900, 1609.482 187.500 C 1597.571 149.167, 1588.327 119.870, 1585.503 111.500 C 1584.203 107.650, 1580.833 97.075, 1578.013 88 C 1575.193 78.925, 1570.195 63.063, 1566.906 52.750 L 1560.926 34 1557.213 34.141 C 1555.171 34.219, 1548.775 34.656, 1543 35.112 M 1471 48.560 C 1432.225 50.923, 1387.450 53.559, 1371.500 54.419 C 1355.550 55.279, 1326.975 56.907, 1308 58.036 C 1289.025 59.165, 1264.275 60.632, 1253 61.295 L 1232.500 62.500 1232.235 261.111 L 1231.970 459.721 1239.532 460.407 C 1259.886 462.251, 1282.725 473.239, 1296.800 487.957 C 1303.445 494.906, 1311.191 506.114, 1314.464 513.514 C 1320.928 528.130, 1325.637 550.323, 1322.960 553.549 C 1321.940 554.778, 1314.878 555, 1276.878 555 L 1232 555 1232 564.500 L 1232 574 1476.500 574 C 1701.125 574, 1721 573.868, 1721 572.381 C 1721 571.491, 1717.810 560.804, 1713.912 548.631 C 1710.013 536.459, 1703.291 515.475, 1698.973 502 C 1694.655 488.525, 1689.054 470.750, 1686.527 462.500 C 1684 454.250, 1680.541 443.225, 1678.842 438 C 1672.880 419.674, 1672.152 417.393, 1667.998 404 C 1665.695 396.575, 1662.053 385.007, 1659.905 378.293 C 1657.757 371.579, 1656 365.572, 1656 364.944 C 1656 364.316, 1655.382 362.384, 1654.627 360.651 C 1653.871 358.918, 1651.794 352.550, 1650.010 346.500 C 1648.226 340.450, 1644.829 329.425, 1642.460 322 C 1636.288 302.651, 1621.314 255.303, 1605.479 205.064 C 1597.949 181.174, 1591.417 160.699, 1590.964 159.564 C 1590.512 158.429, 1588.730 152.775, 1587.006 147 C 1585.281 141.225, 1582.364 131.775, 1580.522 126 C 1578.681 120.225, 1575.297 109.425, 1573.003 102 C 1570.709 94.575, 1565.982 79.500, 1562.500 68.500 C 1559.017 57.500, 1555.875 47.487, 1555.517 46.250 C 1554.675 43.342, 1558.210 43.246, 1471 48.560 M 1196 64.127 C 1154.903 66.677, 1097.690 70.179, 1085.500 70.891 C 1075.972 71.447, 1095.535 71.755, 1146.750 71.854 L 1222 72 1222 67.500 L 1222 63 1215.750 63.145 C 1212.313 63.224, 1203.425 63.666, 1196 64.127 M 978.500 77.061 C 963.100 78.041, 948.587 78.878, 946.250 78.922 L 942 79 942 201 L 942 323 1029 323 L 1116 323 1116 318.565 C 1116 306.519, 1122.626 286.940, 1130.972 274.321 C 1143.119 255.958, 1158.359 244.300, 1179.655 237.079 C 1189.432 233.764, 1202.737 231.587, 1207.250 232.564 L 1210 233.159 1210 278.079 L 1210 323 1216 323 L 1222 323 1222 199 L 1222 75 1114.250 75.140 C 1023.171 75.258, 1002.168 75.555, 978.500 77.061 M 918 80.624 C 916.625 80.802, 906.725 81.405, 896 81.964 C 874.266 83.096, 810.260 86.749, 746.500 90.497 C 723.400 91.855, 692.575 93.640, 678 94.463 C 663.425 95.286, 644.075 96.427, 635 96.998 C 625.925 97.568, 606.350 98.716, 591.500 99.548 C 534.827 102.721, 477.862 105.988, 462 106.974 C 423.558 109.363, 377.531 112.047, 350 113.504 C 333.775 114.363, 314.425 115.388, 307 115.783 L 293.500 116.500 293.248 367.250 L 292.996 618 516.854 618 L 740.713 618 741.344 611.208 C 744.557 576.633, 768.626 545.347, 801 533.665 C 814.281 528.873, 831.851 526.331, 833.480 528.967 C 833.808 529.499, 834.052 549.749, 834.021 573.967 L 833.965 618 841.335 618 L 848.705 618 848.717 593.250 C 848.723 579.638, 848.789 560.063, 848.864 549.750 L 849 531 890 531 L 931 531 931 305.500 L 931 80 925.750 80.150 C 922.862 80.232, 919.375 80.445, 918 80.624 M 1205 278.941 C 1205 307.647, 1205.348 323, 1206 323 C 1206.651 323, 1207 307.853, 1207 279.559 C 1207 251.677, 1206.642 235.897, 1206 235.500 C 1205.339 235.092, 1205 249.823, 1205 278.941 M 1193 236.693 C 1168.997 240.727, 1146.788 255.353, 1133.522 275.860 C 1124.584 289.677, 1120.727 301.494, 1118.961 320.470 C 1118.348 327.053, 1117.630 332.790, 1117.364 333.219 C 1117.099 333.649, 1077.534 334, 1029.441 334 L 942 334 942 363.500 L 942 393 960 393 L 978 393 978 455 L 978 517 960 517 L 942 517 942 545.500 L 942 574 1009.878 574 C 1085.095 574, 1080.401 573.552, 1079.815 580.680 L 1079.500 584.500 1049.250 584.765 L 1019 585.029 1019 745.501 L 1019 905.972 1051.250 906.236 L 1083.500 906.500 1083.500 911.500 L 1083.500 916.500 1067.763 916.775 C 1052.426 917.044, 1052.012 917.107, 1051.499 919.275 C 1051.210 920.499, 1051.091 945.125, 1051.236 974 L 1051.500 1026.500 1059.890 1027.195 C 1072.405 1028.232, 1088.046 1033.458, 1097.500 1039.762 C 1104.099 1044.162, 1117.289 1055.528, 1120.574 1059.646 C 1124.786 1064.927, 1132.056 1077.252, 1135.233 1084.500 C 1138.542 1092.050, 1140.921 1102.262, 1141.695 1112.240 L 1142.295 1119.979 1096.897 1120.240 L 1051.500 1120.500 1051.220 1133.250 L 1050.940 1146 1175.388 1146 C 1243.835 1146, 1300.548 1146.273, 1301.418 1146.607 C 1302.573 1147.050, 1303.005 1148.602, 1303.020 1152.357 C 1303.055 1161.632, 1305.796 1178.355, 1308.535 1186 C 1312.639 1197.456, 1319.857 1208.898, 1328.459 1217.579 C 1343.192 1232.450, 1364.651 1243.033, 1382.500 1244.231 L 1386.500 1244.500 1387 1200 L 1387.500 1155.500 1389.750 1154.513 C 1391.397 1153.790, 1392 1152.683, 1392 1150.380 C 1392 1146.298, 1393.087 1146.031, 1409.750 1146.014 L 1423 1146 1423.014 1134.250 C 1423.021 1127.787, 1423.274 1121.580, 1423.576 1120.456 C 1424.071 1118.614, 1425.375 1118.302, 1436.813 1117.293 C 1452.353 1115.923, 1462.979 1112.765, 1475.936 1105.668 C 1487.606 1099.277, 1500.298 1087.193, 1507.357 1075.755 C 1514.187 1064.687, 1520.871 1045.772, 1520.964 1037.250 L 1521 1034 1476.500 1034 L 1432 1034 1432 1031.557 C 1432 1029.404, 1431.503 1029.079, 1427.797 1028.807 L 1423.594 1028.500 1423.394 984.500 C 1423.285 960.300, 1423.151 935.219, 1423.097 928.764 L 1423 917.027 1318.370 917.028 C 1239.229 917.028, 1213.391 916.740, 1212.312 915.844 C 1210.781 914.573, 1210.786 909.325, 1212.320 907.250 C 1212.990 906.344, 1217.480 906, 1228.622 906 L 1244 906 1244.015 802.750 C 1244.024 745.962, 1244.361 699.004, 1244.765 698.397 C 1245.190 697.759, 1250.355 697.054, 1257 696.726 C 1285.875 695.301, 1311.736 680.217, 1328.479 655.032 C 1335.861 643.928, 1342 626.683, 1342 617.053 L 1342 614 1298.934 614 C 1255.919 614, 1252 613.710, 1252 610.525 C 1252 609.624, 1250.656 609.009, 1248.250 608.810 L 1244.500 608.500 1244.218 596.750 L 1243.937 585 1218.468 585 C 1196.640 585, 1193 584.788, 1193 583.519 C 1193 582.262, 1189.556 581.997, 1170.250 581.769 L 1147.500 581.500 1147.170 578.609 C 1146.982 576.966, 1147.414 575.353, 1148.170 574.874 C 1148.901 574.410, 1165.588 574.024, 1185.250 574.015 L 1221 574 1221.015 564.250 C 1221.024 558.888, 1221.405 553.909, 1221.863 553.187 C 1222.321 552.466, 1224.151 551.833, 1225.931 551.783 C 1228.359 551.714, 1229.390 551.105, 1230.059 549.345 L 1230.950 547 1275.912 547 L 1320.874 547 1320.329 543.250 C 1319.298 536.157, 1316.023 524.263, 1313.174 517.263 C 1301.050 487.471, 1269.107 465.024, 1236.500 463.384 C 1231 463.107, 1225.487 462.674, 1224.250 462.421 L 1222 461.962 1222 397.981 L 1222 334 1214.500 334 L 1207 334 1207 329.975 C 1207 326.602, 1206.595 325.797, 1204.500 325 L 1202 324.050 1202 280.025 L 1202 236 1198.750 236.136 C 1196.963 236.211, 1194.375 236.461, 1193 236.693 M 1623.250 242.072 C 1622.013 242.547, 1621 243.460, 1621 244.102 C 1621 245.298, 1625.219 258.930, 1634.585 288 C 1637.508 297.075, 1642.872 314.175, 1646.504 326 C 1654.917 353.395, 1654.390 352.161, 1657.219 351.116 C 1658.474 350.653, 1659.624 349.650, 1659.775 348.887 C 1659.926 348.124, 1654.585 330.400, 1647.906 309.500 C 1641.228 288.600, 1633.827 265.033, 1631.461 257.129 C 1629.094 249.225, 1626.785 242.410, 1626.329 241.984 C 1625.873 241.558, 1624.487 241.597, 1623.250 242.072 M 1656.611 354.820 C 1656.096 355.654, 1661.735 374.844, 1671.504 405.500 C 1674.483 414.850, 1680.507 433.975, 1684.889 448 C 1698.769 492.414, 1712.960 537.102, 1716.964 549 C 1722.718 566.101, 1725.203 575.029, 1724.626 576.532 C 1724.197 577.651, 1683.142 577.864, 1478.442 577.812 C 1314.069 577.769, 1232.563 578.082, 1232.137 578.758 C 1231.768 579.343, 1223.991 579.990, 1213.674 580.294 C 1203.869 580.583, 1195.582 581.085, 1195.257 581.410 C 1194.932 581.734, 1206.442 582, 1220.833 582 L 1247 582 1247.156 590.250 C 1247.243 594.788, 1247.311 599.928, 1247.309 601.673 C 1247.306 603.883, 1247.848 604.989, 1249.095 605.314 C 1250.079 605.572, 1251.135 605.531, 1251.442 605.225 C 1251.749 604.918, 1252.007 600.129, 1252.015 594.583 C 1252.024 589.038, 1252.388 583.937, 1252.826 583.248 C 1253.459 582.250, 1301.653 582.047, 1490.484 582.248 L 1727.347 582.500 1729.668 590 C 1745.726 641.886, 1746.671 644.515, 1749.138 644.164 C 1750.437 643.978, 1751.792 643.528, 1752.148 643.164 C 1752.504 642.799, 1748.776 629.675, 1743.861 614 C 1727.522 561.880, 1707.833 499.666, 1703.510 486.500 C 1701.162 479.350, 1696.686 465.175, 1693.562 455 C 1686.459 431.869, 1675.636 397.386, 1663.350 358.750 C 1662.110 354.851, 1661.416 354, 1659.479 354 C 1658.180 354, 1656.890 354.369, 1656.611 354.820 M 941.512 397.750 C 941.696 398.712, 941.881 425.262, 941.923 456.750 L 942 514 949 514 L 956 514 956 455 L 956 396 948.588 396 C 942.069 396, 941.217 396.211, 941.512 397.750 M 959.830 401.750 C 959.566 406.019, 959.679 504.799, 959.956 512.750 C 959.987 513.635, 962.190 514, 967.500 514 L 975 514 975 455 L 975 396 967.593 396 L 960.185 396 959.830 401.750 M 284 525.500 L 284 575 287 575 L 290 575 290 525.500 L 290 476 287 476 L 284 476 284 525.500 M 815.834 532.567 C 791.644 536.944, 770.452 551.679, 757.474 573.145 C 749.093 587.009, 744.647 601.866, 743.725 619.088 C 743.501 623.261, 742.995 627.198, 742.600 627.838 C 742.058 628.715, 686.889 629, 517.441 629 L 293 629 293 753.500 L 293 878 377.750 878.015 C 424.363 878.024, 463.026 878.365, 463.669 878.774 C 464.441 879.265, 465.012 884.786, 465.348 895.009 L 465.857 910.500 468.609 912.500 C 470.124 913.600, 475.898 918.325, 481.443 923 C 486.987 927.675, 494.192 933.750, 497.455 936.500 C 500.718 939.250, 505.971 943.525, 509.129 946 C 512.287 948.475, 523.200 957.587, 533.380 966.250 L 551.889 982 653.838 982 C 745.879 982, 755.845 981.846, 756.393 980.418 C 756.727 979.548, 757 976.933, 757 974.607 C 757 964.620, 764.234 945.019, 772.537 932.511 C 777.101 925.635, 786.830 915.630, 794.295 910.135 C 801.506 904.828, 816.557 897.538, 824.475 895.517 C 832.997 893.342, 846.352 891.537, 848.323 892.294 C 849.857 892.883, 850 896.722, 850 937.469 L 850 982 854.500 982 L 859 982 859 805.500 L 859 629 845.607 629 C 831.021 629, 831 628.992, 831 622.988 C 831 620.795, 830.482 620.066, 828.750 619.820 L 826.500 619.500 826.291 577 C 826.177 553.625, 826.064 533.712, 826.041 532.750 C 825.994 530.730, 825.984 530.730, 815.834 532.567 M 829.823 532.500 C 829.547 533.600, 829.362 553.137, 829.411 575.915 C 829.483 609.252, 829.757 617.417, 830.819 617.772 C 831.899 618.133, 832.096 610.728, 831.908 576.856 C 831.694 538.391, 831.166 527.148, 829.823 532.500 M 1232 551 C 1232 551.652, 1247.520 552, 1276.559 552 C 1306.010 552, 1320.908 551.661, 1320.500 551 C 1320.103 550.358, 1304.156 550, 1275.941 550 C 1247.314 550, 1232 550.349, 1232 551 M 1224.667 555.667 C 1224.300 556.033, 1224 560.308, 1224 565.167 C 1224 573.922, 1224.022 574, 1226.500 574 C 1228.991 574, 1229 573.967, 1229 564.500 C 1229 555.955, 1228.816 555, 1227.167 555 C 1226.158 555, 1225.033 555.300, 1224.667 555.667 M 1151 578.005 C 1151 578.633, 1158.565 579, 1171.500 579 C 1182.775 579, 1192 578.637, 1192 578.194 C 1192 577.750, 1182.775 577.303, 1171.500 577.199 C 1158.439 577.078, 1151 577.371, 1151 578.005 M 1201.296 577.744 C 1205.583 577.932, 1212.333 577.931, 1216.296 577.742 C 1220.258 577.552, 1216.750 577.399, 1208.500 577.400 C 1200.250 577.401, 1197.008 577.556, 1201.296 577.744 M 284 674.500 L 284 770 286.993 770 L 289.987 770 290.243 698.250 L 290.500 626.500 515.250 626.248 L 740 625.996 740 623.498 L 740 621 515 621 L 290 621 290 600 L 290 579 287 579 L 284 579 284 674.500 M 942 744.500 C 942 832.225, 941.888 904.337, 941.750 904.750 C 941.612 905.163, 958.263 905.618, 978.750 905.762 L 1016 906.024 1016 745.512 L 1016 585 979 585 L 942 585 942 744.500 M 1255 595.490 L 1255 605.980 1300.250 606.240 L 1345.500 606.500 1345.812 610.271 C 1346.447 617.954, 1341.885 636.157, 1336.733 646.500 C 1326.275 667.495, 1308.586 684.066, 1286.911 693.173 C 1279.458 696.304, 1264.067 699.963, 1258.250 699.987 L 1255 700 1255 803 L 1255 906 1311.393 906 C 1355.650 906, 1367.863 905.731, 1368.143 904.750 C 1368.339 904.063, 1368.500 869.300, 1368.500 827.500 L 1368.500 751.500 1365.200 751.183 L 1361.900 750.866 1362.200 745.683 C 1362.488 740.714, 1362.626 740.488, 1365.550 740.202 L 1368.601 739.903 1368.646 662.452 L 1368.691 585 1311.846 585 L 1255 585 1255 595.490 M 1371.500 621.999 C 1371.500 642.349, 1371.650 658.999, 1371.834 658.999 C 1372.018 659, 1374.637 656.638, 1377.654 653.750 C 1380.672 650.862, 1383.559 648.350, 1384.070 648.167 C 1386.284 647.373, 1384.642 649.928, 1380 654.500 C 1377.250 657.209, 1375 659.794, 1375 660.246 C 1375 660.698, 1379.838 660.940, 1385.750 660.784 L 1396.500 660.500 1396.698 622.750 L 1396.897 585 1384.198 585 L 1371.500 584.999 1371.500 621.999 M 1400 623 L 1400 661 1412.500 661 L 1425 661 1425 623 L 1425 585 1412.500 585 L 1400 585 1400 623 M 1428 623 L 1428 661 1440.500 661 L 1453 661 1453 623 L 1453 585 1440.500 585 L 1428 585 1428 623 M 1456 623 L 1456 661.060 1468.525 660.780 L 1481.050 660.500 1481.142 623 L 1481.234 585.500 1468.617 585.220 L 1456 584.940 1456 623 M 1484.649 605.250 C 1484.731 616.387, 1484.843 633.487, 1484.899 643.250 L 1485 661 1497.500 661 L 1510 661 1510 623 L 1510 585 1497.250 585 L 1484.500 585 1484.649 605.250 M 1513 623 L 1513 661 1525.500 661 L 1538 661 1538 623 L 1538 585 1525.500 585 L 1513 585 1513 623 M 1541 622.970 L 1541 661 1553.992 661 L 1566.984 661 1566.742 623.250 L 1566.500 585.500 1553.750 585.220 L 1541 584.940 1541 622.970 M 1570 623 L 1570 661 1582.500 661 L 1595 661 1595 623 L 1595 585 1582.500 585 L 1570 585 1570 623 M 1598 623 L 1598 661 1610.500 661 L 1623 661 1623 623 L 1623 585 1610.500 585 L 1598 585 1598 623 M 1626 623 L 1626 661 1638.500 661 L 1651 661 1651 623 L 1651 585 1638.500 585 L 1626 585 1626 623 M 1654 662.421 L 1654 739.867 1656.750 740.184 C 1659.309 740.478, 1659.521 740.859, 1659.800 745.679 C 1660.090 750.691, 1660.010 750.868, 1657.300 751.179 L 1654.500 751.500 1654.244 828.750 L 1653.988 906 1739.994 906 C 1787.297 906, 1826 905.666, 1826 905.258 C 1826 904.850, 1824.243 899.112, 1822.096 892.508 C 1819.949 885.904, 1816.539 875.100, 1814.519 868.500 C 1812.499 861.900, 1804.839 837.600, 1797.498 814.500 C 1790.157 791.400, 1782.492 767.100, 1780.464 760.500 C 1778.436 753.900, 1773.715 738.825, 1769.972 727 C 1755.379 680.893, 1749.584 662.556, 1741.846 638 C 1737.427 623.975, 1731.880 606.425, 1729.520 599 L 1725.230 585.500 1689.615 585.237 L 1654 584.975 1654 662.421 M 1258.250 608.783 C 1256.463 608.972, 1255 609.553, 1255 610.074 C 1255 610.660, 1271.694 610.922, 1298.750 610.761 C 1327.288 610.591, 1342.413 610.152, 1342.250 609.500 C 1342.016 608.566, 1266.405 607.921, 1258.250 608.783 M 1750.250 646.713 C 1749.013 646.947, 1748 647.426, 1748 647.777 C 1748 648.127, 1751.576 659.684, 1755.946 673.457 C 1774.077 730.594, 1782.289 756.710, 1783.238 760.250 C 1783.811 762.388, 1784.864 764, 1785.687 764 C 1787.768 764, 1791.139 762.034, 1790.588 761.142 C 1790.131 760.403, 1770.341 698.453, 1763.549 676.500 C 1755.707 651.152, 1754.147 646.556, 1753.345 646.425 C 1752.880 646.349, 1751.487 646.479, 1750.250 646.713 M 1379.784 669.281 C 1384.559 674.116, 1386.215 677, 1384.216 677 C 1383.785 677, 1380.987 674.525, 1378 671.500 C 1375.013 668.475, 1372.328 666, 1372.034 666.001 C 1371.573 666.001, 1371.515 691.954, 1371.891 729.250 L 1372 740 1384.529 740 L 1397.058 740 1396.964 702 L 1396.870 664 1385.719 664 L 1374.568 664 1379.784 669.281 M 1400 701.969 L 1400 740 1412.512 740 L 1425.024 740 1424.762 702.250 L 1424.500 664.500 1412.250 664.219 L 1400 663.938 1400 701.969 M 1428 702 L 1428 740 1440.500 740 L 1453 740 1453 702 L 1453 664 1440.500 664 L 1428 664 1428 702 M 1456 701.970 L 1456 740 1468.832 740 L 1481.664 740 1481.582 702.250 L 1481.500 664.500 1468.750 664.220 L 1456 663.940 1456 701.970 M 1485 702 L 1485 740 1497.500 740 L 1510 740 1510 702 L 1510 664 1497.500 664 L 1485 664 1485 702 M 1513 702 L 1513 740 1525.500 740 L 1538 740 1538 702 L 1538 664 1525.500 664 L 1513 664 1513 702 M 1541 702 L 1541 740 1553.966 740 L 1566.933 740 1566.975 702 L 1567.018 664 1554.009 664 L 1541 664 1541 702 M 1569.809 664.750 C 1569.639 665.163, 1569.623 682.263, 1569.774 702.750 L 1570.048 740 1582.524 740 L 1595 740 1595 702 L 1595 664 1582.559 664 C 1575.716 664, 1569.979 664.337, 1569.809 664.750 M 1598 702 L 1598 740 1610.500 740 L 1623 740 1623 702 L 1623 664 1610.500 664 L 1598 664 1598 702 M 1626 702 L 1626 740 1638.500 740 L 1651 740 1651 702 L 1651 664 1638.500 664 L 1626 664 1626 702 M 1247.725 700.750 C 1247.508 701.163, 1247.224 747.850, 1247.093 804.500 C 1246.962 861.150, 1246.483 907.882, 1246.029 908.348 C 1245.575 908.815, 1238.408 909.132, 1230.102 909.053 L 1215 908.910 1215 911.455 L 1215 914 1320.500 914 L 1426 914 1426 969 C 1426 1007.262, 1426.324 1024, 1427.066 1024 C 1427.652 1024, 1429.002 1023.534, 1430.066 1022.965 C 1431.941 1021.961, 1432 1020.295, 1432 967.965 L 1432 914 1631.949 914 L 1831.898 914 1837.017 930.250 C 1839.833 939.188, 1842.596 947.980, 1843.158 949.789 C 1844.011 952.531, 1844.539 952.969, 1846.340 952.426 C 1850.935 951.041, 1851.780 954.830, 1835.310 903 C 1831.727 891.725, 1827.299 877.775, 1825.469 872 C 1823.639 866.225, 1818.994 851.600, 1815.146 839.500 C 1811.298 827.400, 1804.707 806.475, 1800.499 793 C 1796.292 779.525, 1792.672 767.938, 1792.456 767.250 C 1791.997 765.792, 1789.132 765.631, 1787.053 766.946 C 1785.834 767.717, 1786.277 769.956, 1789.870 781.181 C 1792.215 788.506, 1797.885 806.425, 1802.471 821 C 1807.057 835.575, 1811.721 850.200, 1812.835 853.500 C 1818.018 868.849, 1829.081 906.323, 1828.807 907.599 C 1828.542 908.831, 1789.214 909.023, 1541.057 909.009 C 1312.626 908.997, 1253.451 908.737, 1252.822 907.747 C 1252.387 907.061, 1252.024 860.038, 1252.015 803.250 C 1252 701.718, 1251.968 700, 1250.059 700 C 1248.991 700, 1247.941 700.337, 1247.725 700.750 M 1364.270 744.739 C 1362.778 748.627, 1359.264 748.538, 1511.129 748.469 L 1657.500 748.403 1657.812 745.744 L 1658.125 743.086 1511.439 743.282 C 1394.446 743.438, 1364.656 743.732, 1364.270 744.739 M 1372.597 752.546 C 1371.514 753.629, 1371.240 761.130, 1371.211 790.448 L 1371.176 827 1384.100 827 L 1397.024 827 1396.762 789.250 L 1396.500 751.500 1385.224 751.348 C 1376.924 751.236, 1373.591 751.552, 1372.597 752.546 M 1400 789.240 L 1400 827 1412.512 827 L 1425.024 827 1424.762 789.314 L 1424.500 751.629 1412.250 751.554 L 1400 751.480 1400 789.240 M 1428 788.996 L 1428 827 1440.512 827 L 1453.024 827 1452.762 789.270 L 1452.500 751.540 1440.250 751.266 L 1428 750.992 1428 788.996 M 1459.250 751.813 L 1456 752.127 1456 789.563 L 1456 827 1469.015 827 L 1482.031 827 1481.765 789.250 L 1481.500 751.500 1472 751.500 C 1466.775 751.500, 1461.037 751.641, 1459.250 751.813 M 1489.003 751.493 C 1489.005 751.497, 1493.527 764.760, 1499.053 780.967 C 1504.579 797.174, 1509.303 810.636, 1509.550 810.884 C 1509.798 811.131, 1510 797.795, 1510 781.248 L 1510 751.163 1499.500 751.324 C 1493.725 751.413, 1489.001 751.488, 1489.003 751.493 M 1513 783.113 C 1513 800.513, 1512.763 816.044, 1512.473 817.625 C 1511.545 822.684, 1513.021 823.305, 1518.735 820.258 C 1523.492 817.721, 1526.020 817.540, 1524.600 819.838 C 1524.270 820.372, 1521.525 822.206, 1518.500 823.913 C 1515.475 825.620, 1513 827.427, 1513 827.929 C 1513 828.431, 1511.537 829.150, 1509.750 829.528 C 1507.963 829.906, 1505.073 831.082, 1503.329 832.140 C 1500.269 833.998, 1498.055 833.338, 1499.500 831 C 1499.891 830.367, 1497.344 830, 1492.559 830 L 1485 830 1485 868 L 1485 906 1497.500 906 L 1510 906 1510 871.510 L 1510 837.020 1515.500 833.369 C 1521.342 829.489, 1522.241 828.442, 1519 829.290 C 1517.900 829.577, 1517 829.444, 1517 828.994 C 1517 827.774, 1524.654 826.639, 1531.762 826.805 L 1538.024 826.951 1537.762 789.263 L 1537.500 751.575 1525.250 751.526 L 1513 751.476 1513 783.113 M 1541.470 751.864 C 1541.211 752.122, 1541 769.133, 1541 789.667 L 1541 827 1554.012 827 L 1567.024 827 1566.762 789.255 L 1566.500 751.509 1554.220 751.452 C 1547.466 751.420, 1541.728 751.605, 1541.470 751.864 M 1570 789.100 L 1570 827 1582.512 827 L 1595.024 827 1594.762 789.250 L 1594.500 751.500 1582.250 751.350 L 1570 751.201 1570 789.100 M 1598 789.181 L 1598 827 1610.512 827 L 1623.024 827 1622.762 789.265 L 1622.500 751.531 1610.250 751.446 L 1598 751.362 1598 789.181 M 1626.527 751.806 C 1626.237 752.096, 1626 769.133, 1626 789.667 L 1626 827 1637.219 827 L 1648.437 827 1642.619 821.120 C 1634.907 813.327, 1637.021 811.971, 1645.008 819.589 L 1651 825.304 1651 788.652 L 1651 752 1648.750 751.828 C 1642.596 751.359, 1626.990 751.343, 1626.527 751.806 M 1485.071 789.336 L 1485 827.172 1496.453 826.836 C 1504.186 826.609, 1508.327 826.074, 1509.203 825.188 C 1510.267 824.112, 1508.542 818.106, 1499.582 791.688 C 1483.540 744.395, 1485.154 744.656, 1485.071 789.336 M 284 823.500 L 284 874 287 874 L 290 874 290 823.500 L 290 773 287 773 L 284 773 284 823.500 M 1371.867 832.750 C 1371.794 834.263, 1371.681 851.362, 1371.617 870.749 L 1371.500 905.999 1384.250 905.999 L 1397 906 1397 868 L 1397 830 1384.500 830 L 1372 830 1371.867 832.750 M 1400 868 L 1400 906 1412.500 906 L 1425 906 1425 868 L 1425 830 1412.500 830 L 1400 830 1400 868 M 1428 868 L 1428 906 1440.500 906 L 1453 906 1453 868 L 1453 830 1440.500 830 L 1428 830 1428 868 M 1456 867.970 L 1456 906 1469.012 906 L 1482.024 906 1481.762 868.250 L 1481.500 830.500 1468.750 830.220 L 1456 829.940 1456 867.970 M 1523.250 832.641 C 1520.912 834.050, 1519 835.582, 1519 836.045 C 1519 837.680, 1536.678 889.011, 1537.537 889.870 C 1537.792 890.125, 1538 876.758, 1538 860.167 L 1538 830 1532.750 830.039 C 1528.938 830.067, 1526.336 830.780, 1523.250 832.641 M 1541 864.134 C 1541 887.108, 1541.379 899.532, 1542.158 902.134 L 1543.317 906 1555.158 906 L 1567 906 1567 868 L 1567 830 1554 830 L 1541 830 1541 864.134 M 1570 868 L 1570 906 1582.500 906 L 1595 906 1595 868 L 1595 830 1582.500 830 L 1570 830 1570 868 M 1598 868 L 1598 906 1610.500 906 L 1623 906 1623 868 L 1623 830 1610.500 830 L 1598 830 1598 868 M 1626 868 L 1626 906 1638.500 906 L 1651 906 1651 869.433 L 1651 832.866 1646.589 836.481 C 1644.162 838.469, 1641.927 840.749, 1641.620 841.548 C 1641.044 843.049, 1638 843.608, 1638 842.212 C 1638 841.779, 1640.250 839.209, 1643 836.500 C 1645.750 833.791, 1648 831.221, 1648 830.788 C 1648 830.354, 1643.050 830, 1637 830 L 1626 830 1626 868 M 1513.667 838.667 C 1513.300 839.033, 1513 854.333, 1513 872.667 L 1513 906 1526.484 906 L 1539.968 906 1535.909 894.750 C 1529.662 877.436, 1516 838.729, 1516 838.344 C 1516 837.745, 1514.361 837.972, 1513.667 838.667 M 284.009 992 L 284.002 1107 286.995 1107 L 289.987 1107 290.244 1032.750 L 290.500 958.500 320.250 958.235 L 350 957.970 350 938.092 C 350 921.337, 350.236 918.123, 351.501 917.638 C 352.327 917.321, 377.415 917.046, 407.251 917.027 L 461.500 916.991 466.682 921.246 C 493.375 943.161, 523.093 967.862, 527 971.380 C 528.375 972.619, 534.050 977.315, 539.612 981.816 L 549.724 990 641.755 990 C 724.753 990, 733.846 990.155, 734.393 991.582 C 734.727 992.452, 735 1040.858, 735 1099.151 L 735 1205.139 737.250 1204.820 L 739.500 1204.500 740 1097.500 L 740.500 990.500 748 990 C 754.667 989.556, 755.500 989.278, 755.500 987.500 C 755.500 985.516, 754.667 985.496, 652.798 985 L 550.096 984.500 546.298 980.874 C 544.209 978.879, 527.200 964.553, 508.500 949.036 C 489.800 933.520, 473.599 920.077, 472.497 919.162 C 471.395 918.248, 468.582 916, 466.247 914.166 L 462 910.832 462 895.958 L 462 881.083 376.750 881.292 L 291.500 881.500 290.513 879.250 C 289.833 877.700, 288.669 877, 286.770 877 L 284.015 877 284.009 992 M 845.639 895.694 C 845.288 896.046, 845 915.608, 845 939.167 C 845 976.775, 845.185 982, 846.516 982 C 847.848 982, 848.025 976.784, 847.979 939.036 C 847.949 915.406, 847.555 895.843, 847.102 895.563 C 846.649 895.283, 845.991 895.342, 845.639 895.694 M 830 897.425 C 815.763 900.584, 801.673 907.341, 792.125 915.590 C 783.519 923.025, 773.574 935.501, 769.172 944.385 C 763.804 955.218, 760 969.783, 760 979.503 C 760 983.489, 759.719 988.156, 759.375 989.875 L 758.750 993 750.879 993 L 743.009 993 742.754 1100.750 L 742.500 1208.500 730.500 1209.119 C 706.740 1210.344, 689.409 1217.862, 672.138 1234.435 C 664.160 1242.090, 659.040 1248.997, 654.146 1258.703 C 650.361 1266.211, 646.347 1279.672, 645.858 1286.500 L 645.500 1291.500 689.750 1291.760 C 733.169 1292.016, 734 1292.058, 734 1294.010 C 734 1295.614, 734.673 1296, 737.465 1296 C 739.768 1296, 741.220 1296.587, 741.795 1297.750 C 742.818 1299.818, 743.425 1330.087, 742.501 1332.996 C 742.040 1334.451, 740.989 1335, 738.670 1335 C 736.315 1335, 735.215 1335.592, 734.487 1337.250 L 733.500 1339.500 689.250 1339.760 L 645 1340.021 645.007 1342.760 C 645.019 1347.351, 648.814 1361.674, 652.008 1369.179 C 656.292 1379.244, 662.666 1388.377, 671.416 1396.983 C 687.630 1412.932, 706.548 1421.301, 729.380 1422.626 C 735.496 1422.981, 741.063 1423.715, 741.750 1424.258 C 742.741 1425.040, 743 1459.213, 743 1589.122 L 743 1753 918 1753 C 1014.250 1753, 1093.338 1753.112, 1093.750 1753.250 C 1094.162 1753.388, 1094.613 1740.900, 1094.750 1725.500 L 1095.001 1697.500 1099.610 1697.191 C 1119.798 1695.836, 1144.111 1714.177, 1151.166 1736.083 L 1153.363 1742.905 1155.192 1737.702 C 1158.782 1727.491, 1162.506 1721.494, 1169.711 1714.321 C 1181.156 1702.927, 1193.806 1697, 1206.682 1697 L 1213 1697 1213 1725 L 1213 1753 1368 1753 L 1523 1753 1523 1747.510 L 1523 1742.020 1477.750 1741.760 L 1432.500 1741.500 1432.201 1737.936 C 1432.036 1735.975, 1432.570 1729.900, 1433.387 1724.436 C 1437.796 1694.958, 1459.125 1667.672, 1487.593 1655.091 C 1496.383 1651.206, 1508.795 1648.013, 1515.208 1647.986 C 1517.019 1647.979, 1519.505 1647.703, 1520.733 1647.374 L 1522.965 1646.776 1522.609 1614.638 C 1522.267 1583.713, 1522.156 1582.160, 1519.691 1573.500 C 1518.281 1568.550, 1515.774 1558.817, 1514.119 1551.872 C 1512.464 1544.927, 1509.261 1532.552, 1507.001 1524.372 C 1504.741 1516.192, 1501.082 1502.750, 1498.869 1494.500 C 1487.255 1451.203, 1481.962 1434.086, 1476.450 1421.991 C 1470.415 1408.750, 1465.042 1396.801, 1444.529 1351 C 1437.508 1335.325, 1430.130 1318.900, 1428.132 1314.500 L 1424.500 1306.500 1424 1232 L 1423.500 1157.500 1411.769 1157.385 C 1405.318 1157.322, 1398.905 1157.487, 1397.519 1157.752 L 1395 1158.233 1395 1202.417 C 1395 1230.920, 1394.640 1246.960, 1393.987 1247.613 C 1392.830 1248.770, 1377.188 1246.911, 1367.672 1244.486 C 1351.410 1240.343, 1330.877 1226.215, 1319.060 1211.039 C 1309.993 1199.394, 1301.507 1178.295, 1300.340 1164.498 L 1299.727 1157.247 1176.614 1157.373 C 1108.901 1157.443, 1050.688 1157.348, 1047.250 1157.161 L 1041 1156.822 1041 1137.423 L 1041 1118.024 1044.946 1117.393 C 1047.963 1116.910, 1048.964 1116.260, 1049.196 1114.631 L 1049.500 1112.500 1094.185 1112.240 L 1138.871 1111.980 1138.371 1108.240 C 1135.826 1089.191, 1126.604 1069.720, 1114.140 1057.079 C 1108.544 1051.405, 1098.160 1043.258, 1092 1039.710 C 1089.525 1038.284, 1083.233 1035.690, 1078.017 1033.946 C 1070.291 1031.363, 1066.055 1030.621, 1055.156 1029.943 C 1047.798 1029.486, 1041.570 1028.903, 1041.316 1028.649 C 1041.062 1028.395, 1040.897 1020.270, 1040.950 1010.594 L 1041.047 993 944.630 993 C 839.211 993, 847 993.440, 847 987.488 C 847 985.813, 846.354 985.047, 844.750 984.820 L 842.500 984.500 842.240 940.250 L 841.979 896 838.740 896.102 C 836.958 896.159, 833.025 896.754, 830 897.425 M 870 953.506 L 870 990.011 955.250 989.756 L 1040.500 989.500 1040.779 955.500 C 1040.933 936.800, 1040.812 920.487, 1040.510 919.250 L 1039.962 917 954.981 917 L 870 917 870 953.506 M 1434.371 918.477 C 1434.060 919.286, 1433.962 943.923, 1434.153 973.225 L 1434.500 1026.500 1479 1026.716 L 1523.500 1026.932 1523.795 1033.435 C 1524.407 1046.918, 1516.178 1069.584, 1505.527 1083.753 C 1499.040 1092.382, 1488.646 1101.679, 1479.285 1107.226 C 1470.085 1112.678, 1453.166 1118.657, 1444.480 1119.527 C 1441.191 1119.857, 1437.487 1120.332, 1436.250 1120.582 L 1434 1121.038 1434 1212.269 L 1434 1303.500 1437.962 1313.161 C 1440.141 1318.474, 1447.067 1334.224, 1453.355 1348.161 C 1459.642 1362.097, 1468.034 1380.925, 1472.003 1390 C 1475.973 1399.075, 1481.843 1412.350, 1485.048 1419.500 C 1490.753 1432.227, 1496.495 1451.732, 1512.131 1511.500 C 1514.289 1519.750, 1517.332 1530.775, 1518.893 1536 C 1520.454 1541.225, 1522.738 1549.100, 1523.969 1553.500 C 1525.199 1557.900, 1527.808 1566.675, 1529.765 1573 L 1533.324 1584.500 1533.412 1616.667 C 1533.460 1634.358, 1533.275 1649.047, 1533 1649.308 C 1532.725 1649.569, 1526.650 1650.273, 1519.500 1650.872 C 1499.328 1652.561, 1487.934 1656.444, 1473.848 1666.430 C 1457.437 1678.064, 1446.470 1692.457, 1440.098 1710.725 C 1437.190 1719.060, 1434.721 1731.635, 1435.675 1733.250 C 1435.919 1733.662, 1455.903 1734, 1480.084 1734 L 1524.050 1734 1524.974 1736.433 C 1525.652 1738.214, 1526.783 1738.951, 1529.200 1739.183 L 1532.500 1739.500 1532.796 1746.250 L 1533.091 1753 1768.305 1753 L 2003.518 1753 2006.368 1741.750 C 2007.936 1735.563, 2012.348 1718.800, 2016.173 1704.500 C 2019.999 1690.200, 2024.187 1674.450, 2025.480 1669.500 C 2026.773 1664.550, 2031.273 1647.724, 2035.479 1632.108 C 2039.686 1616.493, 2043.373 1601.643, 2043.673 1599.108 C 2044.072 1595.736, 2043.550 1592.488, 2041.726 1587 C 2040.355 1582.875, 2037.126 1572.750, 2034.549 1564.500 C 2031.973 1556.250, 2029.044 1547.025, 2028.040 1544 C 2027.036 1540.975, 2017.578 1511.050, 2007.022 1477.500 C 1996.466 1443.950, 1984.972 1407.725, 1981.479 1397 C 1977.987 1386.275, 1973.258 1371.425, 1970.970 1364 C 1968.682 1356.575, 1965.086 1345.100, 1962.979 1338.500 C 1960.871 1331.900, 1956.836 1319.075, 1954.012 1310 C 1951.188 1300.925, 1947.805 1290.350, 1946.495 1286.500 C 1945.184 1282.650, 1937.982 1259.925, 1930.490 1236 C 1922.998 1212.075, 1915.352 1187.775, 1913.499 1182 C 1905.193 1156.118, 1900.895 1142.559, 1897.013 1130 C 1894.718 1122.575, 1890.665 1109.750, 1888.007 1101.500 C 1885.349 1093.250, 1882.199 1083.125, 1881.007 1079 C 1879.815 1074.875, 1872.392 1051.250, 1864.511 1026.500 C 1856.630 1001.750, 1848.534 976.100, 1846.520 969.500 C 1838.812 944.245, 1830.703 919.450, 1829.764 918.268 C 1828.994 917.299, 1786.677 917.032, 1631.860 917.020 C 1459.363 917.006, 1434.866 917.187, 1434.371 918.477 M 353.611 920.821 C 353.341 921.257, 353.255 929.913, 353.420 940.056 C 353.584 950.200, 353.508 959.063, 353.252 959.750 C 352.894 960.712, 345.892 961, 322.893 961 L 293 961 293 1135.500 L 293 1310 512.500 1310 L 732 1310 732 1305.010 L 732 1300.021 687.250 1299.760 L 642.500 1299.500 642.730 1291.101 C 643.092 1277.917, 647.285 1264.401, 655.327 1250.500 C 659.754 1242.848, 675.643 1226.144, 682.783 1221.637 C 697.090 1212.605, 711.156 1207.469, 724.720 1206.322 L 732 1205.707 732 1099.353 L 732 993 640.664 993 L 549.328 993 542.914 987.856 C 536.408 982.639, 496.433 949.423, 494.383 947.531 C 493.769 946.964, 489.070 943.125, 483.941 939 C 478.812 934.875, 472.789 929.899, 470.558 927.942 C 460.494 919.117, 467.580 920.006, 407.420 920.018 C 378.094 920.024, 353.880 920.385, 353.611 920.821 M 1847.294 955.015 C 1845.173 955.869, 1845.143 956.069, 1846.494 960.201 C 1847.267 962.566, 1851.327 975.525, 1855.516 989 C 1859.705 1002.475, 1863.953 1015.975, 1864.955 1019 C 1865.958 1022.025, 1867.457 1026.750, 1868.288 1029.500 C 1869.739 1034.307, 1878.614 1062.216, 1879.486 1064.714 C 1879.806 1065.632, 1880.667 1065.664, 1883.016 1064.845 C 1884.725 1064.249, 1885.935 1063.253, 1885.705 1062.631 C 1885.475 1062.009, 1882.787 1053.625, 1879.731 1044 C 1876.675 1034.375, 1870.954 1016.375, 1867.017 1004 C 1863.081 991.625, 1857.996 975.313, 1855.717 967.750 C 1853.439 960.188, 1851.108 954.029, 1850.538 954.063 C 1849.967 954.098, 1848.507 954.526, 1847.294 955.015 M 1046 1026 C 1044.707 1026.835, 1044.734 1026.971, 1046.191 1026.985 C 1047.121 1026.993, 1048.160 1026.550, 1048.500 1026 C 1049.282 1024.734, 1047.958 1024.734, 1046 1026 M 1426 1026.152 C 1426 1026.618, 1427.350 1027, 1429 1027 C 1430.650 1027, 1432 1026.580, 1432 1026.067 C 1432 1025.554, 1430.650 1025.172, 1429 1025.219 C 1427.350 1025.266, 1426 1025.686, 1426 1026.152 M 1435 1030.500 C 1435 1031.842, 1440.090 1031.991, 1478.250 1031.761 C 1506.243 1031.592, 1521.500 1031.147, 1521.500 1030.500 C 1521.500 1029.853, 1506.243 1029.408, 1478.250 1029.239 C 1440.090 1029.009, 1435 1029.158, 1435 1030.500 M 1882.750 1067.689 C 1881.787 1067.941, 1881 1068.508, 1881 1068.950 C 1881 1070.047, 1884.559 1081.482, 1900 1130 C 1907.264 1152.825, 1914.464 1175.550, 1915.999 1180.500 C 1917.534 1185.450, 1925.860 1211.775, 1934.501 1239 C 1943.143 1266.225, 1954.244 1301.325, 1959.171 1317 C 1964.098 1332.675, 1969.201 1348.875, 1970.511 1353 C 1971.822 1357.125, 1974.450 1365.450, 1976.352 1371.500 C 1980.780 1385.588, 1994.586 1429.242, 2006.556 1467 C 2011.700 1483.225, 2022.015 1515.850, 2029.480 1539.500 C 2036.944 1563.150, 2043.669 1584.083, 2044.425 1586.018 C 2047.647 1594.271, 2047.348 1599.437, 2042.635 1617 C 2040.199 1626.075, 2036.115 1641.375, 2033.558 1651 C 2028.687 1669.338, 2023.205 1689.660, 2019.936 1701.500 C 2017.587 1710.008, 2013.352 1726.133, 2008.972 1743.245 L 2005.709 1755.991 1899.105 1756.245 L 1792.500 1756.500 1792.500 1759.500 L 1792.500 1762.500 1901.459 1762.500 L 2010.417 1762.500 2016.216 1740.500 C 2022.915 1715.084, 2022.538 1716.497, 2040.409 1649.687 C 2047.884 1621.740, 2054 1598.216, 2054 1597.413 C 2054 1596.609, 2052.440 1591.125, 2050.534 1585.226 C 2048.628 1579.327, 2044.983 1567.750, 2042.435 1559.500 C 2039.888 1551.250, 2036.080 1539.100, 2033.973 1532.500 C 2031.867 1525.900, 2026.455 1508.800, 2021.947 1494.500 C 2017.438 1480.200, 2010.683 1458.825, 2006.936 1447 C 1990.382 1394.769, 1985.764 1380.120, 1979.035 1358.500 C 1975.098 1345.850, 1969.252 1327.400, 1966.044 1317.500 C 1962.836 1307.600, 1958.780 1294.775, 1957.030 1289 C 1955.280 1283.225, 1953.458 1277.375, 1952.981 1276 C 1951.852 1272.746, 1937.535 1227.640, 1931.715 1209 C 1929.225 1201.025, 1923.136 1181.675, 1918.183 1166 C 1909.453 1138.373, 1888.193 1070.781, 1887.436 1068.250 C 1887.059 1066.988, 1885.945 1066.854, 1882.750 1067.689 M 284 1265.434 L 284 1421 286.991 1421 L 289.982 1421 290.241 1369.750 L 290.500 1318.500 512.250 1318.248 C 722.948 1318.008, 734.004 1318.083, 734.089 1319.748 C 734.138 1320.712, 734.104 1323.638, 734.015 1326.250 C 733.854 1330.922, 733.902 1331, 736.926 1331 L 740 1331 740 1317 L 740 1303 737.500 1303 C 735.301 1303, 735 1303.429, 735 1306.566 C 735 1308.527, 734.534 1311.002, 733.965 1312.066 C 732.946 1313.969, 729.419 1314, 512.715 1313.985 C 391.597 1313.976, 291.940 1313.614, 291.255 1313.179 C 290.277 1312.558, 289.955 1290.676, 289.755 1211.444 L 289.500 1110.500 286.750 1110.184 L 284 1109.867 284 1265.434 M 1052.500 1116 C 1051.801 1117.132, 1055.740 1117.230, 1104.938 1117.314 C 1129.877 1117.357, 1138.477 1117.070, 1138.771 1116.186 C 1139.287 1114.640, 1053.455 1114.455, 1052.500 1116 M 1046 1121 C 1046 1121.550, 1046.450 1122, 1047 1122 C 1047.550 1122, 1048 1121.550, 1048 1121 C 1048 1120.450, 1047.550 1120, 1047 1120 C 1046.450 1120, 1046 1120.450, 1046 1121 M 1426.586 1121.748 C 1426.264 1122.070, 1426 1128.053, 1426 1135.044 C 1426 1144.315, 1425.645 1148.050, 1424.688 1148.844 C 1423.951 1149.455, 1418.144 1150.058, 1411.450 1150.217 C 1401.019 1150.464, 1399.482 1150.719, 1399.189 1152.250 C 1398.883 1153.847, 1400.038 1154, 1412.408 1154 L 1425.963 1154 1426.231 1229.250 L 1426.500 1304.500 1429.960 1312.250 C 1433.175 1319.451, 1435.026 1321.385, 1436.469 1319.050 C 1436.792 1318.527, 1435.830 1315.265, 1434.330 1311.800 L 1431.603 1305.500 1431.901 1215.500 L 1432.198 1125.500 1429.685 1123.331 C 1428.302 1122.138, 1426.908 1121.426, 1426.586 1121.748 M 1043.419 1123.917 C 1043.188 1124.146, 1043 1131.008, 1043 1139.167 L 1043 1154 1169.500 1154 C 1295.251 1154, 1296 1153.988, 1296 1152.004 C 1296 1150.021, 1295.168 1150.006, 1172.250 1149.754 L 1048.500 1149.500 1048.500 1136.371 C 1048.500 1123.250, 1048.499 1123.243, 1046.169 1123.371 C 1044.887 1123.442, 1043.649 1123.688, 1043.419 1123.917 M 1298.755 1151.500 C 1298.492 1152.875, 1298.665 1154, 1299.139 1154 C 1299.612 1154, 1300 1152.875, 1300 1151.500 C 1300 1150.125, 1299.827 1149, 1299.617 1149 C 1299.406 1149, 1299.018 1150.125, 1298.755 1151.500 M 1395.548 1150.250 C 1395.129 1151.213, 1395.129 1152.787, 1395.548 1153.750 C 1396.273 1155.417, 1396.329 1155.417, 1396.728 1153.750 C 1396.958 1152.787, 1396.958 1151.213, 1396.728 1150.250 C 1396.329 1148.583, 1396.273 1148.583, 1395.548 1150.250 M 1390 1201.500 C 1390 1229.833, 1390.349 1245, 1391 1245 C 1391.651 1245, 1392 1229.833, 1392 1201.500 C 1392 1173.167, 1391.651 1158, 1391 1158 C 1390.349 1158, 1390 1173.167, 1390 1201.500 M 646 1294.883 C 646 1295.369, 646.788 1295.947, 647.750 1296.167 C 649.429 1296.551, 730.972 1296.380, 732 1295.990 C 732.275 1295.886, 731.375 1295.440, 730 1295 C 726.544 1293.893, 646 1293.781, 646 1294.883 M 735.750 1300.662 C 736.438 1300.940, 737.563 1300.940, 738.250 1300.662 C 738.938 1300.385, 738.375 1300.158, 737 1300.158 C 735.625 1300.158, 735.063 1300.385, 735.750 1300.662 M 518.750 1320.774 L 502 1321.048 502 1435.524 L 502 1550 549.504 1550 L 597.008 1550 596.754 1435.250 L 596.500 1320.500 566 1320.500 C 549.225 1320.500, 527.962 1320.623, 518.750 1320.774 M 293 1537 L 293 1753 512.500 1753 L 732 1753 732 1589.500 C 732 1499.575, 731.888 1425.997, 731.750 1425.992 C 731.612 1425.988, 727.791 1425.558, 723.258 1425.037 C 708.602 1423.352, 694.642 1418.179, 681.870 1409.702 C 673.993 1404.473, 660.127 1389.747, 655.076 1381.245 C 647.168 1367.933, 642 1350.905, 642 1338.159 C 642 1332.499, 642.124 1332.208, 644.750 1331.663 C 646.263 1331.349, 666.400 1331.139, 689.500 1331.196 L 731.500 1331.300 731.500 1326.400 L 731.500 1321.500 665.750 1321.243 L 600 1320.986 600 1435.934 C 600 1519.442, 599.695 1551.071, 598.884 1551.572 C 597.630 1552.347, 501.330 1552.663, 500.561 1551.895 C 500.290 1551.624, 499.965 1503.049, 499.837 1443.951 C 499.710 1384.853, 499.434 1333.013, 499.224 1328.750 L 498.842 1321 395.921 1321 L 293 1321 293 1537 M 645.416 1334.917 C 643.649 1336.687, 650.128 1337, 688.500 1337 C 716.214 1337, 732 1336.645, 732 1336.021 C 732 1335.076, 646.348 1333.984, 645.416 1334.917 M 284 1486.500 L 284 1548 287 1548 L 290 1548 290 1486.500 L 290 1425 287 1425 L 284 1425 284 1486.500 M 734.753 1591.750 L 734.500 1755.500 677.750 1755.758 L 621 1756.017 621 1759.508 L 621 1763 708.063 1763 L 795.127 1763 794.813 1759.750 L 794.500 1756.500 767.250 1756.234 L 740 1755.968 740 1591.984 L 740 1428 737.503 1428 L 735.006 1428 734.753 1591.750 M 1497.395 1478.750 C 1497.686 1479.713, 1499.322 1485.675, 1501.031 1492 C 1502.740 1498.325, 1506.401 1511.825, 1509.167 1522 C 1511.933 1532.175, 1514.614 1542.300, 1515.125 1544.500 C 1516.518 1550.504, 1516.799 1551.014, 1518.371 1550.411 C 1519.954 1549.804, 1520.270 1551.181, 1510.148 1514.500 C 1499.947 1477.532, 1499.779 1477, 1498.301 1477 C 1497.399 1477, 1497.062 1477.650, 1497.395 1478.750 M 284 1656.893 L 284 1763 392 1763 L 500 1763 500 1759.500 L 500 1756 395 1756 L 290 1756 290 1654 C 290 1566.614, 289.797 1552, 288.582 1552 C 287.802 1552, 286.452 1551.727, 285.582 1551.393 C 284.146 1550.842, 284 1560.548, 284 1656.893 M 1518.396 1557.073 C 1518.754 1559.314, 1520.469 1565.951, 1522.208 1571.823 L 1525.369 1582.500 1525.761 1613.250 C 1526.128 1642.095, 1526.264 1644, 1527.960 1644 C 1530.363 1644, 1530.810 1637.431, 1530.420 1607.832 L 1530.122 1585.165 1525.975 1570.332 C 1523.695 1562.175, 1521.657 1554.938, 1521.446 1554.250 C 1521.235 1553.563, 1520.316 1553, 1519.404 1553 C 1518.023 1553, 1517.854 1553.684, 1518.396 1557.073 M 1208.667 1699.667 C 1207.558 1700.776, 1207.880 1752.808, 1209 1753.500 C 1209.657 1753.906, 1210 1744.677, 1210 1726.559 C 1210 1711.402, 1209.850 1699, 1209.667 1699 C 1209.483 1699, 1209.033 1699.300, 1208.667 1699.667 M 1097 1726.500 C 1097 1743.500, 1097.358 1753, 1098 1753 C 1098.642 1753, 1099 1743.500, 1099 1726.500 C 1099 1709.500, 1098.642 1700, 1098 1700 C 1097.358 1700, 1097 1709.500, 1097 1726.500 M 1435 1738 C 1435 1738.651, 1450.167 1739, 1478.500 1739 C 1506.833 1739, 1522 1738.651, 1522 1738 C 1522 1737.349, 1506.833 1737, 1478.500 1737 C 1450.167 1737, 1435 1737.349, 1435 1738 M 1526.165 1746.760 C 1525.673 1747.717, 1525.478 1749.082, 1525.733 1749.793 C 1525.987 1750.504, 1525.918 1752.192, 1525.579 1753.543 L 1524.962 1756 1504.594 1756 L 1484.227 1756 1483.786 1759.006 C 1483.543 1760.659, 1483.567 1762.234, 1483.839 1762.506 C 1484.111 1762.778, 1525.433 1763, 1575.667 1763 L 1667 1763 1667 1759.507 L 1667 1756.014 1598.750 1755.757 L 1530.500 1755.500 1530 1750.500 C 1529.486 1745.355, 1527.755 1743.668, 1526.165 1746.760 M 503 1759.500 L 503 1763 560.500 1763 L 618 1763 618 1759.500 L 618 1756 560.500 1756 L 503 1756 503 1759.500 M 798 1759.500 L 798 1763 860 1763 L 922 1763 922 1759.500 L 922 1756 860 1756 L 798 1756 798 1759.500 M 925 1759.500 L 925 1763 1007 1763 L 1089 1763 1089 1759.500 L 1089 1756 1007 1756 L 925 1756 925 1759.500 M 1092.667 1756.667 C 1091.642 1757.692, 1091.877 1761.806, 1093 1762.500 C 1093.595 1762.868, 1094 1761.677, 1094 1759.559 C 1094 1755.904, 1093.820 1755.514, 1092.667 1756.667 M 1213.667 1756.667 C 1212.481 1757.852, 1212.960 1762, 1214.283 1762 C 1215.013 1762, 1215.519 1760.926, 1215.457 1759.507 C 1215.335 1756.723, 1214.668 1755.665, 1213.667 1756.667 M 1218 1759.494 L 1218 1763 1296.500 1763 C 1365.556 1763, 1375.015 1762.820, 1375.125 1761.500 C 1375.580 1756.043, 1382.752 1756.524, 1296.750 1756.244 L 1218 1755.988 1218 1759.494 M 1378.388 1757.432 C 1378.081 1758.230, 1377.988 1759.697, 1378.179 1760.692 C 1378.510 1762.408, 1381.123 1762.500, 1429.514 1762.500 L 1480.500 1762.500 1480.500 1759.500 L 1480.500 1756.500 1429.722 1756.241 C 1386.108 1756.018, 1378.866 1756.186, 1378.388 1757.432 M 1670.387 1757.434 C 1670.081 1758.231, 1669.988 1759.697, 1670.179 1760.692 C 1670.510 1762.412, 1673.423 1762.500, 1730.014 1762.500 L 1789.500 1762.500 1789.500 1759.500 L 1789.500 1756.500 1730.222 1756.242 C 1679.204 1756.020, 1670.866 1756.186, 1670.387 1757.434 M 1256.010 1862 L 1255.981 1958 1272.491 1958 L 1289 1958 1289.067 1865.250 C 1289.105 1814.237, 1289.326 1771.037, 1289.559 1769.250 L 1289.983 1766 1273.011 1766 L 1256.039 1766 1256.010 1862 M 1292 1862 L 1292 1958 1307.986 1958 L 1323.973 1958 1324.236 1889.750 C 1324.381 1852.213, 1324.380 1809.013, 1324.234 1793.750 L 1323.968 1766 1307.984 1766 L 1292 1766 1292 1862 M 1327 1862.103 L 1327 1958.205 1335.330 1957.853 C 1342.511 1957.549, 1344.335 1957.082, 1348.554 1954.474 C 1351.585 1952.599, 1354.599 1949.584, 1356.474 1946.552 L 1359.500 1941.658 1359.766 1853.829 L 1360.032 1766 1343.516 1766 L 1327 1766 1327 1862.103" stroke="none" fill="black" fill-rule="evenodd"/>
</svg>